0
SECTION
2
HEADER
9
$INSUNITS
70
4
9
$ACADVER
1
AC1014
9
$HANDSEED
5
FFFF
0
ENDSEC
0
SECTION
2
TABLES
0
TABLE
2
VPORT
5
8
100
AcDbSymbolTable
0
ENDTAB
0
TABLE
2
LTYPE
5
5
100
AcDbSymbolTable
0
LTYPE
5
14
100
AcDbSymbolTableRecord
100
AcDbLinetypeTableRecord
2
BYBLOCK
70
0
0
LTYPE
5
15
100
AcDbSymbolTableRecord
100
AcDbLinetypeTableRecord
2
BYLAYER
70
0
0
ENDTAB
0
TABLE
2
LAYER
5
2
100
AcDbSymbolTable
70
2
0
LAYER
5
50
100
AcDbSymbolTableRecord
100
AcDbLayerTableRecord
2
0
70
0
6
CONTINUOUS
0
ENDTAB
0
TABLE
2
STYLE
5
3
100
AcDbSymbolTable
70
1
0
STYLE
5
11
100
AcDbSymbolTableRecord
100
AcDbTextStyleTableRecord
2
STANDARD
70
0
0
ENDTAB
0
TABLE
2
VIEW
5
6
100
AcDbSymbolTable
70
0
0
ENDTAB
0
TABLE
2
UCS
5
7
100
AcDbSymbolTable
70
0
0
ENDTAB
0
TABLE
2
APPID
5
9
100
AcDbSymbolTable
70
2
0
APPID
5
12
100
AcDbSymbolTableRecord
100
AcDbRegAppTableRecord
2
ACAD
70
0
0
ENDTAB
0
TABLE
2
DIMSTYLE
5
A
100
AcDbSymbolTable
70
1
0
ENDTAB
0
TABLE
2
BLOCK_RECORD
5
1
100
AcDbSymbolTable
70
1
0
BLOCK_RECORD
5
1F
100
AcDbSymbolTableRecord
100
AcDbBlockTableRecord
2
*MODEL_SPACE
0
BLOCK_RECORD
5
1B
100
AcDbSymbolTableRecord
100
AcDbBlockTableRecord
2
*PAPER_SPACE
0
ENDTAB
0
ENDSEC
0
SECTION
2
BLOCKS
0
BLOCK
5
20
100
AcDbEntity
100
AcDbBlockBegin
2
*MODEL_SPACE
0
ENDBLK
5
21
100
AcDbEntity
100
AcDbBlockEnd
0
BLOCK
5
1C
100
AcDbEntity
100
AcDbBlockBegin
2
*PAPER_SPACE
0
ENDBLK
5
1D
100
AcDbEntity
100
AcDbBlockEnd
0
ENDSEC
0
SECTION
2
ENTITIES
0
CIRCLE
5
100
100
AcDbEntity
8
0
100
AcDbCircle
10
74
20
60
30
0
40
1.635
210
0
220
0
230
1
0
CIRCLE
5
101
100
AcDbEntity
8
0
100
AcDbCircle
10
52
20
70
30
0
40
4.1500000000000004
210
0
220
0
230
1
0
CIRCLE
5
102
100
AcDbEntity
8
0
100
AcDbCircle
10
4
20
4
30
0
40
1.635
210
0
220
0
230
1
0
CIRCLE
5
103
100
AcDbEntity
8
0
100
AcDbCircle
10
106.00000000000001
20
70
30
0
40
4.1500000000000004
210
0
220
0
230
1
0
CIRCLE
5
104
100
AcDbEntity
8
0
100
AcDbCircle
10
101.00000000000001
20
80
30
0
40
1.635
210
0
220
0
230
1
0
CIRCLE
5
105
100
AcDbEntity
8
0
100
AcDbCircle
10
101.00000000000001
20
60
30
0
40
1.635
210
0
220
0
230
1
0
CIRCLE
5
106
100
AcDbEntity
8
0
100
AcDbCircle
10
47
20
60
30
0
40
1.635
210
0
220
0
230
1
0
CIRCLE
5
107
100
AcDbEntity
8
0
100
AcDbCircle
10
20
20
80
30
0
40
1.635
210
0
220
0
230
1
0
CIRCLE
5
108
100
AcDbEntity
8
0
100
AcDbCircle
10
20
20
60
30
0
40
1.635
210
0
220
0
230
1
0
CIRCLE
5
109
100
AcDbEntity
8
0
100
AcDbCircle
10
79
20
70
30
0
40
4.1500000000000004
210
0
220
0
230
1
0
CIRCLE
5
110
100
AcDbEntity
8
0
100
AcDbCircle
10
25
20
70
30
0
40
4.1500000000000004
210
0
220
0
230
1
0
CIRCLE
5
111
100
AcDbEntity
8
0
100
AcDbCircle
10
47
20
80
30
0
40
1.635
210
0
220
0
230
1
0
LWPOLYLINE
5
112
100
AcDbEntity
8
0
100
AcDbPolyline
90
4
70
1
43
0.0
10
295
20
-7.6105585151227703e-31
10
295
20
102.00000000000001
10
4.622231866529366e-31
20
102.00000000000001
10
0
20
0
0
CIRCLE
5
113
100
AcDbEntity
8
0
100
AcDbCircle
10
150
20
70.792479927251918
30
0
40
13.949999999999999
210
0
220
0
230
1
0
CIRCLE
5
114
100
AcDbEntity
8
0
100
AcDbCircle
10
74
20
80
30
0
40
1.635
210
0
220
0
230
1
0
LWPOLYLINE
5
115
100
AcDbEntity
8
0
100
AcDbPolyline
90
4
70
1
43
0.0
10
8
20
94
10
168
20
94
10
168
20
8
10
8
20
8
0
LWPOLYLINE
5
116
100
AcDbEntity
8
0
100
AcDbPolyline
90
4
70
1
43
0.0
10
287
20
94
10
202
20
94
10
202
20
8
10
287
20
8
0
LWPOLYLINE
5
117
100
AcDbEntity
8
0
100
AcDbPolyline
90
4
70
1
43
0.0
10
201
20
-51.347052300139069
10
201
20
-135.34705230013907
10
287
20
-135.34705230013907
10
287
20
-51.347052300139062
0
CIRCLE
5
118
100
AcDbEntity
8
0
100
AcDbCircle
10
112.01214580209128
20
-62.094161367487494
30
0
40
1.6350000000000002
210
0
220
0
230
1
0
LWPOLYLINE
5
119
100
AcDbEntity
8
0
100
AcDbPolyline
90
4
70
1
43
0.0
10
170
20
-51.347052300139069
10
170
20
-135.34705230013907
10
8
20
-135.34705230013907
10
8
20
-51.347052300139069
0
CIRCLE
5
120
100
AcDbEntity
8
0
100
AcDbCircle
10
162.81214580209107
20
-67.194161367487467
30
0
40
1.6350000000000002
210
0
220
0
230
1
0
LWPOLYLINE
5
121
100
AcDbEntity
8
0
100
AcDbPolyline
90
4
70
1
43
0.0
10
295
20
-143.34705230013907
10
295
20
-43.347052300139062
10
-9.2444637330587321e-32
20
-43.347052300139062
10
0
20
-143.34705230013907
0
CIRCLE
5
122
100
AcDbEntity
8
0
100
AcDbCircle
10
162.81214580209104
20
-95.094161367487402
30
0
40
1.6350000000000002
210
0
220
0
230
1
0
CIRCLE
5
123
100
AcDbEntity
8
0
100
AcDbCircle
10
4
20
-139.34705230013907
30
0
40
2
210
0
220
0
230
1
0
CIRCLE
5
124
100
AcDbEntity
8
0
100
AcDbCircle
10
110.71214580209124
20
-100.19416136748734
30
0
40
1.6350000000000002
210
0
220
0
230
1
0
CIRCLE
5
125
100
AcDbEntity
8
0
100
AcDbCircle
10
26.501039195618805
20
25
30
0
40
7.5
210
0
220
0
230
1
0
CIRCLE
5
126
100
AcDbEntity
8
0
100
AcDbCircle
10
54.501039195618816
20
25
30
0
40
7.5
210
0
220
0
230
1
0
LWPOLYLINE
5
127
100
AcDbEntity
8
0
100
AcDbPolyline
90
4
70
1
43
0.0
10
46.953542916869253
20
32.898594387347927
10
64.048535474368379
20
33.101405612652073
10
63.960364334914843
20
40.533365902246317
10
46.865371777415717
20
40.330554676942171
0
CIRCLE
5
128
100
AcDbEntity
8
0
100
AcDbCircle
10
94.501039195618816
20
25
30
0
40
7.5
210
0
220
0
230
1
0
LWPOLYLINE
5
129
100
AcDbEntity
8
0
100
AcDbPolyline
90
4
70
1
43
0.0
10
85.151099101114511
20
33.004157681416018
10
105.85097929012312
20
32.995842318583996
10
105.85410807198409
20
40.78448738054157
10
85.154227882975505
20
40.792802743373585
0
LWPOLYLINE
5
130
100
AcDbEntity
8
0
100
AcDbPolyline
90
4
70
1
43
0.0
10
144.86223245896437
20
27.951455447705129
10
160
20
27.951455447705129
10
160
20
20
10
144.86223245896437
20
20
0
LWPOLYLINE
5
131
100
AcDbEntity
8
0
100
AcDbPolyline
90
4
70
1
43
0.0
10
142.2617224226077
20
32.316187728548741
10
163.74187563699127
20
32.316187728548741
10
163.74187563699127
20
40.80834132493294
10
142.2617224226077
20
40.80834132493294
0
LWPOLYLINE
5
132
100
AcDbEntity
8
0
100
AcDbPolyline
90
4
70
1
43
0.0
10
17.937489899082113
20
32.898594387347927
10
35.032482456581235
20
33.101405612652073
10
34.944311317127699
20
40.533365902246317
10
17.849318759628581
20
40.330554676942171
0
LWPOLYLINE
5
133
100
AcDbEntity
8
0
100
AcDbPolyline
90
4
70
1
43
0.0
10
10
20
-54.347052300139055
10
168
20
-54.347052300139055
10
168
20
-133.34705230013907
10
10
20
-133.34705230013907
0
CIRCLE
5
134
100
AcDbEntity
8
0
100
AcDbCircle
10
16
20
-127.34705230013907
30
0
40
1.9999999999999996
210
0
220
0
230
1
0
CIRCLE
5
135
100
AcDbEntity
8
0
100
AcDbCircle
10
163
20
-127.34705230013907
30
0
40
1.9999999999999996
210
0
220
0
230
1
0
CIRCLE
5
136
100
AcDbEntity
8
0
100
AcDbCircle
10
16
20
-59.347052300139055
30
0
40
1.9999999999999996
210
0
220
0
230
1
0
CIRCLE
5
137
100
AcDbEntity
8
0
100
AcDbCircle
10
163
20
-59.347052300139055
30
0
40
1.9999999999999996
210
0
220
0
230
1
0
CIRCLE
5
138
100
AcDbEntity
8
0
100
AcDbCircle
10
23.987242839438636
20
-128.54847807846627
30
0
40
1.9999999999999987
210
0
220
0
230
1
0
CIRCLE
5
139
100
AcDbEntity
8
0
100
AcDbCircle
10
93.987242839438466
20
-128.5484780784663
30
0
40
1.9999999999999987
210
0
220
0
230
1
0
CIRCLE
5
140
100
AcDbEntity
8
0
100
AcDbCircle
10
23.987242839438679
20
-58.548478078466431
30
0
40
1.9999999999999987
210
0
220
0
230
1
0
CIRCLE
5
141
100
AcDbEntity
8
0
100
AcDbCircle
10
93.987242839438494
20
-58.548478078466474
30
0
40
1.9999999999999987
210
0
220
0
230
1
0
CIRCLE
5
142
100
AcDbEntity
8
0
100
AcDbCircle
10
106.88174487934377
20
-127.80413263049792
30
0
40
1.635
210
0
220
0
230
1
0
CIRCLE
5
143
100
AcDbEntity
8
0
100
AcDbCircle
10
146.88174487934378
20
-127.80413263049792
30
0
40
1.635
210
0
220
0
230
1
0
CIRCLE
5
144
100
AcDbEntity
8
0
100
AcDbCircle
10
106.88174487934377
20
-109.8041326304979
30
0
40
1.635
210
0
220
0
230
1
0
CIRCLE
5
145
100
AcDbEntity
8
0
100
AcDbCircle
10
146.88174487934378
20
-109.8041326304979
30
0
40
1.635
210
0
220
0
230
1
0
LWPOLYLINE
5
146
100
AcDbEntity
8
0
100
AcDbPolyline
90
4
70
1
43
0.0
10
33.813196146997967
20
-133.34705230013907
10
85
20
-133.34705230013907
10
85
20
-100
10
33.813196146997967
20
-100
0
LWPOLYLINE
5
147
100
AcDbEntity
8
0
100
AcDbPolyline
90
4
70
1
43
0.0
10
121.37536267724718
20
-133.34705230013907
10
136.30844534132069
20
-133.34705230013907
10
136.30844534132069
20
-111.75935376408205
10
121.37536267724718
20
-111.75935376408205
0
LWPOLYLINE
5
148
100
AcDbEntity
8
0
100
AcDbPolyline
90
4
70
1
43
0.0
10
42.752690289250381
20
-54.347052300139055
10
63.754706444908621
20
-54.347052300139055
10
63.754706444908621
20
-63.366484664474392
10
42.752690289250381
20
-63.366484664474392
0
LWPOLYLINE
5
149
100
AcDbEntity
8
0
100
AcDbPolyline
90
4
70
1
43
0.0
10
168
20
-76.703913243554126
10
160
20
-76.703913243554126
10
160
20
-85
10
168
20
-85
0
LWPOLYLINE
5
150
100
AcDbEntity
8
0
100
AcDbPolyline
90
4
70
1
43
0.0
10
10
20
-70
10
19.700384092420187
20
-70
10
19.700384092420187
20
-83.560065127129931
10
10
20
-83.560065127129931
0
LINE
5
151
100
AcDbEntity
8
0
100
AcDbLine
10
44.540357820877368
20
39.59691882842867
30
0
11
44.531982549632872
21
40.302871861240057
31
0
0
LINE
5
152
100
AcDbEntity
8
0
100
AcDbLine
10
44.531982549632886
20
40.302871861240057
30
0
11
45.145854823338979
21
40.310154706645918
31
0
0
LINE
5
153
100
AcDbEntity
8
0
100
AcDbLine
10
45.145854823338979
20
40.310154706645918
30
0
11
45.154230094583468
21
39.604201673834531
31
0
0
LINE
5
154
100
AcDbEntity
8
0
100
AcDbLine
10
45.154230094583461
20
39.604201673834531
30
0
11
44.540357820877368
21
39.59691882842867
31
0
0
LINE
5
155
100
AcDbEntity
8
0
100
AcDbLine
10
44.591297273919174
20
35.303223697270631
30
0
11
44.548328490090356
21
38.925069769433975
31
0
0
LINE
5
156
100
AcDbEntity
8
0
100
AcDbLine
10
44.548328490090356
20
38.925069769433975
30
0
11
45.162200763796449
21
38.932352614839836
31
0
0
LINE
5
157
100
AcDbEntity
8
0
100
AcDbLine
10
45.162200763796449
20
38.932352614839843
30
0
11
45.205169547625268
21
35.310506542676492
31
0
0
LINE
5
158
100
AcDbEntity
8
0
100
AcDbLine
10
45.205169547625268
20
35.310506542676492
30
0
11
44.591297273919174
21
35.303223697270639
31
0
0
LINE
5
159
100
AcDbEntity
8
0
100
AcDbLine
10
46.139619532810968
20
35.321592651421113
30
0
11
46.096650748982142
21
38.943438723584464
31
0
0
LINE
5
160
100
AcDbEntity
8
0
100
AcDbLine
10
46.096650748982142
20
38.943438723584464
30
0
11
46.649135601616159
21
38.949993282151702
31
0
0
LINE
5
161
100
AcDbEntity
8
0
100
AcDbLine
10
46.649135601616159
20
38.949993282151702
30
0
11
46.655245098655826
21
38.435022741115596
31
0
0
SPLINE
5
162
100
AcDbEntity
8
0
100
AcDbSpline
70
0
71
2
72
6
73
3
74
0
42
0.000000001
43
0.0000000001
44
0.0000000001
40
0
40
0
40
0
40
1
40
1
40
1
10
46.655245098655826
20
38.435022741115596
30
0
10
47.047181824494601
20
39.036576731873069
30
0
10
47.800880182247539
20
39.045518443133339
30
0
0
SPLINE
5
163
100
AcDbEntity
8
0
100
AcDbSpline
70
0
71
2
72
6
73
3
74
0
42
0.000000001
43
0.0000000001
44
0.0000000001
40
0
40
0
40
0
40
1
40
1
40
1
10
47.800880182247539
20
39.045518443133339
30
0
10
48.128278867291847
20
39.049402628999665
30
0
10
48.40421200208052
20
38.935000939067443
30
0
0
SPLINE
5
164
100
AcDbEntity
8
0
100
AcDbSpline
70
0
71
2
72
6
73
3
74
0
42
0.000000001
43
0.0000000001
44
0.0000000001
40
0
40
0
40
0
40
1
40
1
40
1
10
48.40421200208052
20
38.935000939067443
30
0
10
48.680145136869186
20
38.820599249135213
30
0
10
48.818827104343043
20
38.63123516902143
30
0
0
SPLINE
5
165
100
AcDbEntity
8
0
100
AcDbSpline
70
0
71
2
72
6
73
3
74
0
42
0.000000001
43
0.0000000001
44
0.0000000001
40
0
40
0
40
0
40
1
40
1
40
1
10
48.818827104343043
20
38.63123516902143
30
0
10
48.957508773814638
20
38.441871085372213
30
0
10
49.015190811622517
20
38.17991737625885
30
0
0
SPLINE
5
166
100
AcDbEntity
8
0
100
AcDbSpline
70
0
71
2
72
6
73
3
74
0
42
0.000000001
43
0.0000000001
44
0.0000000001
40
0
40
0
40
0
40
1
40
1
40
1
10
49.015190811622517
20
38.17991737625885
30
0
10
49.051317795596781
20
38.009802109206909
30
0
10
49.056375328061591
20
37.583501840493753
30
0
0
LINE
5
167
100
AcDbEntity
8
0
100
AcDbLine
10
49.056375328061591
20
37.583501840493753
30
0
11
49.082795870417179
21
35.356509847044826
31
0
0
LINE
5
168
100
AcDbEntity
8
0
100
AcDbLine
10
49.082795870417179
20
35.356509847044826
30
0
11
48.468923745712218
21
35.349227003406682
31
0
0
LINE
5
169
100
AcDbEntity
8
0
100
AcDbLine
10
48.468923745712218
20
35.349227003406682
30
0
11
48.442786423364517
21
37.552346334384822
31
0
0
SPLINE
5
170
100
AcDbEntity
8
0
100
AcDbSpline
70
0
71
2
72
6
73
3
74
0
42
0.000000001
43
0.0000000001
44
0.0000000001
40
0
40
0
40
0
40
1
40
1
40
1
10
48.442786423364517
20
37.552346334384822
30
0
10
48.438335797482416
20
37.927490344370689
30
0
10
48.364512129104824
20
38.112507662379613
30
0
0
SPLINE
5
171
100
AcDbEntity
8
0
100
AcDbSpline
70
0
71
2
72
6
73
3
74
0
42
0.000000001
43
0.0000000001
44
0.0000000001
40
0
40
0
40
0
40
1
40
1
40
1
10
48.364512129104824
20
38.112507662379613
30
0
10
48.290688464262665
20
38.297524682386282
30
0
10
48.10691715657255
20
38.406198124362419
30
0
0
SPLINE
5
172
100
AcDbEntity
8
0
100
AcDbSpline
70
0
71
2
72
6
73
3
74
0
42
0.000000001
43
0.0000000001
44
0.0000000001
40
0
40
0
40
0
40
1
40
1
40
1
10
48.10691715657255
20
38.406198124362419
30
0
10
47.92314584888242
20
38.514871566338556
30
0
10
47.677596760598632
20
38.511958426054953
30
0
0
SPLINE
5
173
100
AcDbEntity
8
0
100
AcDbSpline
70
0
71
2
72
6
73
3
74
0
42
0.000000001
43
0.0000000001
44
0.0000000001
40
0
40
0
40
0
40
1
40
1
40
1
10
47.677596760598632
20
38.511958426054953
30
0
10
47.285400763704423
20
38.507305499157091
30
0
10
47.003585794711782
20
38.254967641532872
30
0
0
SPLINE
5
174
100
AcDbEntity
8
0
100
AcDbSpline
70
0
71
2
72
6
73
3
74
0
42
0.000000001
43
0.0000000001
44
0.0000000001
40
0
40
0
40
0
40
1
40
1
40
1
10
47.003585794711782
20
38.254967641532872
30
0
10
46.7217708221837
20
38.002630081910901
30
0
10
46.730024711404575
20
37.306908360445426
30
0
0
LINE
5
175
100
AcDbEntity
8
0
100
AcDbLine
10
46.730024711404575
20
37.306908360445426
30
0
11
46.753491657515923
21
35.328875495059258
31
0
0
LINE
5
176
100
AcDbEntity
8
0
100
AcDbLine
10
46.753491657515923
20
35.328875495059258
30
0
11
46.139619532810968
21
35.321592651421113
31
0
0
LINE
5
177
100
AcDbEntity
8
0
100
AcDbLine
10
50.08204331645392
20
35.368364698588699
30
0
11
50.022728592167631
21
40.368012862558125
31
0
0
LINE
5
178
100
AcDbEntity
8
0
100
AcDbLine
10
50.022728592167631
20
40.368012862558125
30
0
11
51.018565700423153
21
40.379827254605935
31
0
0
LINE
5
179
100
AcDbEntity
8
0
100
AcDbLine
10
51.018565700423153
20
40.379827254605935
30
0
11
52.243972700918832
21
36.853870485959675
31
0
0
SPLINE
5
180
100
AcDbEntity
8
0
100
AcDbSpline
70
0
71
2
72
6
73
3
74
0
42
0.000000001
43
0.0000000001
44
0.0000000001
40
0
40
0
40
0
40
1
40
1
40
1
10
52.243972700918832
20
36.853870485959675
30
0
10
52.413538630967693
20
36.361304360778576
30
0
10
52.491480983380754
20
36.116645998625316
30
0
0
SPLINE
5
181
100
AcDbEntity
8
0
100
AcDbSpline
70
0
71
2
72
6
73
3
74
0
42
0.000000001
43
0.0000000001
44
0.0000000001
40
0
40
0
40
0
40
1
40
1
40
1
10
52.491480983380754
20
36.116645998625316
30
0
10
52.573503803668103
20
36.390489290702213
30
0
10
52.747983943540376
20
36.921245876582084
30
0
0
LINE
5
182
100
AcDbEntity
8
0
100
AcDbLine
10
52.747983943540376
20
36.921245876582084
30
0
11
53.903765103739644
21
40.414056624654805
31
0
0
LINE
5
183
100
AcDbEntity
8
0
100
AcDbLine
10
53.90376510373963
20
40.414056624654805
30
0
11
54.793879356759362
21
40.424616744041145
31
0
0
LINE
5
184
100
AcDbEntity
8
0
100
AcDbLine
10
54.793879356759362
20
40.424616744041131
30
0
11
54.85319408104565
21
35.424968580071706
31
0
0
LINE
5
185
100
AcDbEntity
8
0
100
AcDbLine
10
54.85319408104565
20
35.424968580071706
30
0
11
54.215450187876655
21
35.417402527031982
31
0
0
LINE
5
186
100
AcDbEntity
8
0
100
AcDbLine
10
54.215450187876655
20
35.417402527031982
30
0
11
54.165805463456977
21
39.60196476317526
31
0
0
LINE
5
187
100
AcDbEntity
8
0
100
AcDbLine
10
54.165805463456977
20
39.601964763175253
30
0
11
52.762618876870263
21
35.400166456448481
31
0
0
LINE
5
188
100
AcDbEntity
8
0
100
AcDbLine
10
52.762618876870249
20
35.400166456448481
30
0
11
52.165798441071381
21
35.393085910290665
31
0
0
LINE
5
189
100
AcDbEntity
8
0
100
AcDbLine
10
52.165798441071381
20
35.393085910290665
30
0
11
50.669294010117703
21
39.632111585330293
31
0
0
LINE
5
190
100
AcDbEntity
8
0
100
AcDbLine
10
50.669294010117703
20
39.632111585330293
30
0
11
50.719788401631916
21
35.375930765770164
31
0
0
LINE
5
191
100
AcDbEntity
8
0
100
AcDbLine
10
50.719788401631916
20
35.375930765770164
30
0
11
50.08204331645392
21
35.368364698588699
31
0
0
SPLINE
5
192
100
AcDbEntity
8
0
100
AcDbSpline
70
0
71
2
72
6
73
3
74
0
42
0.000000001
43
0.0000000001
44
0.0000000001
40
0
40
0
40
0
40
1
40
1
40
1
10
58.200319599489056
20
35.911503614688925
30
0
10
57.862717790116434
20
35.617573504787913
30
0
10
57.548671099949885
20
35.494466717261702
30
0
0
SPLINE
5
193
100
AcDbEntity
8
0
100
AcDbSpline
70
0
71
2
72
6
73
3
74
0
42
0.000000001
43
0.0000000001
44
0.0000000001
40
0
40
0
40
0
40
1
40
1
40
1
10
57.548671099949885
20
35.494466717261702
30
0
10
57.234626793801354
20
35.371359958018957
30
0
10
56.873123836938113
20
35.367071166585681
30
0
0
SPLINE
5
194
100
AcDbEntity
8
0
100
AcDbSpline
70
0
71
2
72
6
73
3
74
0
42
0.000000001
43
0.0000000001
44
0.0000000001
40
0
40
0
40
0
40
1
40
1
40
1
10
56.873123836938113
20
35.367071166585681
30
0
10
56.276303401139245
20
35.359990620427865
30
0
10
55.952266332037425
20
35.647777197428347
30
0
0
SPLINE
5
195
100
AcDbEntity
8
0
100
AcDbSpline
70
0
71
2
72
6
73
3
74
0
42
0.000000001
43
0.0000000001
44
0.0000000001
40
0
40
0
40
0
40
1
40
1
40
1
10
55.952266332037425
20
35.647777197428347
30
0
10
55.628229270006464
20
35.935563178424331
30
0
10
55.622848058037704
20
36.389146447389493
30
0
0
SPLINE
5
196
100
AcDbEntity
8
0
100
AcDbSpline
70
0
71
2
72
6
73
3
74
0
42
0.000000001
43
0.0000000001
44
0.0000000001
40
0
40
0
40
0
40
1
40
1
40
1
10
55.622848058037704
20
36.389146447389493
30
0
10
55.61969216077771
20
36.655157562360593
30
0
10
55.738151253032242
20
36.876564854603636
30
0
0
SPLINE
5
197
100
AcDbEntity
8
0
100
AcDbSpline
70
0
71
2
72
6
73
3
74
0
42
0.000000001
43
0.0000000001
44
0.0000000001
40
0
40
0
40
0
40
1
40
1
40
1
10
55.738151253032242
20
36.876564854603636
30
0
10
55.856611537295784
20
37.097972160988412
30
0
10
56.051130991108387
20
37.233304174852023
30
0
0
SPLINE
5
198
100
AcDbEntity
8
0
100
AcDbSpline
70
0
71
2
72
6
73
3
74
0
42
0.000000001
43
0.0000000001
44
0.0000000001
40
0
40
0
40
0
40
1
40
1
40
1
10
56.051130991108387
20
37.233304174852023
30
0
10
56.245651636929999
20
37.368636202857374
30
0
10
56.49039211715526
20
37.439757297845226
30
0
0
SPLINE
5
199
100
AcDbEntity
8
0
100
AcDbSpline
70
0
71
2
72
6
73
3
74
0
42
0.000000001
43
0.0000000001
44
0.0000000001
40
0
40
0
40
0
40
1
40
1
40
1
10
56.49039211715526
20
37.439757297845226
30
0
10
56.670577148500243
20
37.489647614507938
30
0
10
57.034963270615989
20
37.538311838455897
30
0
0
SPLINE
5
200
100
AcDbEntity
8
0
100
AcDbSpline
70
0
71
2
72
6
73
3
74
0
42
0.000000001
43
0.0000000001
44
0.0000000001
40
0
40
0
40
0
40
1
40
1
40
1
10
57.034963270615989
20
37.538311838455897
30
0
10
57.777379242919508
20
37.635802748624037
30
0
10
58.127193424288279
20
37.762744691569281
30
0
0
SPLINE
5
201
100
AcDbEntity
8
0
100
AcDbSpline
70
0
71
2
72
6
73
3
74
0
42
0.000000001
43
0.0000000001
44
0.0000000001
40
0
40
0
40
0
40
1
40
1
40
1
10
58.127193424288279
20
37.762744691569281
30
0
10
58.129107927976079
20
37.888969749127938
30
0
10
58.128703322409123
20
37.923074020946885
30
0
0
SPLINE
5
202
100
AcDbEntity
8
0
100
AcDbSpline
70
0
71
2
72
6
73
3
74
0
42
0.000000001
43
0.0000000001
44
0.0000000001
40
0
40
0
40
0
40
1
40
1
40
1
10
58.128703322409123
20
37.923074020946885
30
0
10
58.12425269652703
20
38.298218030932752
30
0
10
57.948501180980585
20
38.449622734385606
30
0
0
SPLINE
5
203
100
AcDbEntity
8
0
100
AcDbSpline
70
0
71
2
72
6
73
3
74
0
42
0.000000001
43
0.0000000001
44
0.0000000001
40
0
40
0
40
0
40
1
40
1
40
1
10
57.948501180980585
20
38.449622734385606
30
0
10
57.710713838810854
20
38.654865437132088
30
0
10
57.246900748511045
20
38.649362860816872
30
0
0
SPLINE
5
204
100
AcDbEntity
8
0
100
AcDbSpline
70
0
71
2
72
6
73
3
74
0
42
0.000000001
43
0.0000000001
44
0.0000000001
40
0
40
0
40
0
40
1
40
1
40
1
10
57.246900748511045
20
38.649362860816872
30
0
10
56.813779506233203
20
38.644224405824502
30
0
10
56.609250381367161
20
38.490013545529749
30
0
0
SPLINE
5
205
100
AcDbEntity
8
0
100
AcDbSpline
70
0
71
2
72
6
73
3
74
0
42
0.000000001
43
0.0000000001
44
0.0000000001
40
0
40
0
40
0
40
1
40
1
40
1
10
56.609250381367161
20
38.490013545529749
30
0
10
56.404721848970176
20
38.335802990308117
30
0
10
56.310391677202539
20
37.949254315306995
30
0
0
LINE
5
206
100
AcDbEntity
8
0
100
AcDbLine
10
56.310391677202539
20
37.949254315306995
30
0
11
55.709190454044233
21
38.023982913484488
31
0
0
SPLINE
5
207
100
AcDbEntity
8
0
100
AcDbSpline
70
0
71
2
72
6
73
3
74
0
42
0.000000001
43
0.0000000001
44
0.0000000001
40
0
40
0
40
0
40
1
40
1
40
1
10
55.709190454044233
20
38.023982913484488
30
0
10
55.786467744896768
20
38.410329276863557
30
0
10
55.971227910882817
20
38.649577537400816
30
0
0
SPLINE
5
208
100
AcDbEntity
8
0
100
AcDbSpline
70
0
71
2
72
6
73
3
74
0
42
0.000000001
43
0.0000000001
44
0.0000000001
40
0
40
0
40
0
40
1
40
1
40
1
10
55.971227910882817
20
38.649577537400816
30
0
10
56.155988080404306
20
38.888825499935813
30
0
10
56.50915131430569
20
39.020923401978081
30
0
0
SPLINE
5
209
100
AcDbEntity
8
0
100
AcDbSpline
70
0
71
2
72
6
73
3
74
0
42
0.000000001
43
0.0000000001
44
0.0000000001
40
0
40
0
40
0
40
1
40
1
40
1
10
56.50915131430569
20
39.020923401978081
30
0
10
56.862316336220601
20
39.153021325232949
30
0
10
57.329540956310638
20
39.158564375185975
30
0
0
SPLINE
5
210
100
AcDbEntity
8
0
100
AcDbSpline
70
0
71
2
72
6
73
3
74
0
42
0.000000001
43
0.0000000001
44
0.0000000001
40
0
40
0
40
0
40
1
40
1
40
1
10
57.329540956310638
20
39.158564375185975
30
0
10
57.793356430628464
20
39.164066979784657
30
0
10
58.08453583069921
20
39.058373212644071
30
0
0
SPLINE
5
211
100
AcDbEntity
8
0
100
AcDbSpline
70
0
71
2
72
6
73
3
74
0
42
0.000000001
43
0.0000000001
44
0.0000000001
40
0
40
0
40
0
40
1
40
1
40
1
10
58.08453583069921
20
39.058373212644071
30
0
10
58.375715227234537
20
38.95267974350574
30
0
10
58.514093446950213
20
38.788893491217912
30
0
0
SPLINE
5
212
100
AcDbEntity
8
0
100
AcDbSpline
70
0
71
2
72
6
73
3
74
0
42
0.000000001
43
0.0000000001
44
0.0000000001
40
0
40
0
40
0
40
1
40
1
40
1
10
58.514093446950213
20
38.788893491217912
30
0
10
58.652471663130463
20
38.625107536932347
30
0
10
58.71003112690569
20
38.373385125023155
30
0
0
SPLINE
5
213
100
AcDbEntity
8
0
100
AcDbSpline
70
0
71
2
72
6
73
3
74
0
42
0.000000001
43
0.0000000001
44
0.0000000001
40
0
40
0
40
0
40
1
40
1
40
1
10
58.71003112690569
20
38.373385125023155
30
0
10
58.742586531118988
20
38.216870756670886
30
0
10
58.747441759032604
20
37.807622772868328
30
0
0
LINE
5
214
100
AcDbEntity
8
0
100
AcDbLine
10
58.747441759032604
20
37.807622772868328
30
0
11
58.757152218395277
21
36.989126507260956
31
0
0
SPLINE
5
215
100
AcDbEntity
8
0
100
AcDbSpline
70
0
71
2
72
6
73
3
74
0
42
0.000000001
43
0.0000000001
44
0.0000000001
40
0
40
0
40
0
40
1
40
1
40
1
10
58.757152218395277
20
36.989126507260956
30
0
10
58.767307739285513
20
36.133115930055681
30
0
10
58.809217825758424
20
35.90678958684871
30
0
0
SPLINE
5
216
100
AcDbEntity
8
0
100
AcDbSpline
70
0
71
2
72
6
73
3
74
0
42
0.000000001
43
0.0000000001
44
0.0000000001
40
0
40
0
40
0
40
1
40
1
40
1
10
58.809217825758424
20
35.90678958684871
30
0
10
58.85112791223132
20
35.680463243641739
30
0
10
58.969549859566797
20
35.473804118105534
30
0
0
LINE
5
217
100
AcDbEntity
8
0
100
AcDbLine
10
58.969549859566797
20
35.473804118105534
30
0
11
58.328394436607581
21
35.466197591428006
31
0
0
SPLINE
5
218
100
AcDbEntity
8
0
100
AcDbSpline
70
0
71
2
72
6
73
3
74
0
42
0.000000001
43
0.0000000001
44
0.0000000001
40
0
40
0
40
0
40
1
40
1
40
1
10
58.328394436607581
20
35.466197591428006
30
0
10
58.230636820510604
20
35.656047189030005
30
0
10
58.200319599489056
20
35.911503614688925
30
0
0
SPLINE
5
219
100
AcDbEntity
8
0
100
AcDbSpline
70
0
71
2
72
6
73
3
74
0
42
0.000000001
43
0.0000000001
44
0.0000000001
40
0
40
0
40
0
40
1
40
1
40
1
10
58.13289831929643
20
37.281878124349866
30
0
10
57.800296476344428
20
37.141496815616087
30
0
10
57.132991238237871
20
37.038075367082399
30
0
0
SPLINE
5
220
100
AcDbEntity
8
0
100
AcDbSpline
70
0
71
2
72
6
73
3
74
0
42
0.000000001
43
0.0000000001
44
0.0000000001
40
0
40
0
40
0
40
1
40
1
40
1
10
57.132991238237871
20
37.038075367082399
30
0
10
56.755085147020878
20
36.979017993804277
30
0
10
56.599014045111815
20
36.908948852784974
30
0
0
SPLINE
5
221
100
AcDbEntity
8
0
100
AcDbSpline
70
0
71
2
72
6
73
3
74
0
42
0.000000001
43
0.0000000001
44
0.0000000001
40
0
40
0
40
0
40
1
40
1
40
1
10
56.599014045111815
20
36.908948852784974
30
0
10
56.442945926760693
20
36.838879449117755
30
0
10
56.359244005567753
20
36.706567856981714
30
0
0
SPLINE
5
222
100
AcDbEntity
8
0
100
AcDbSpline
70
0
71
2
72
6
73
3
74
0
42
0.000000001
43
0.0000000001
44
0.0000000001
40
0
40
0
40
0
40
1
40
1
40
1
10
56.359244005567753
20
36.706567856981714
30
0
10
56.275540902972097
20
36.574255356697172
30
0
10
56.277442534641473
20
36.413966500957372
30
0
0
SPLINE
5
223
100
AcDbEntity
8
0
100
AcDbSpline
70
0
71
2
72
6
73
3
74
0
42
0.000000001
43
0.0000000001
44
0.0000000001
40
0
40
0
40
0
40
1
40
1
40
1
10
56.277442534641473
20
36.413966500957372
30
0
10
56.280355667854209
20
36.168418008678088
30
0
10
56.468165936132124
20
36.006923914259531
30
0
0
SPLINE
5
224
100
AcDbEntity
8
0
100
AcDbSpline
70
0
71
2
72
6
73
3
74
0
42
0.000000001
43
0.0000000001
44
0.0000000001
40
0
40
0
40
0
40
1
40
1
40
1
10
56.468165936132124
20
36.006923914259531
30
0
10
56.655973231458361
20
35.845429188482143
30
0
10
57.014067042549399
20
35.849677534561081
30
0
0
SPLINE
5
225
100
AcDbEntity
8
0
100
AcDbSpline
70
0
71
2
72
6
73
3
74
0
42
0.000000001
43
0.0000000001
44
0.0000000001
40
0
40
0
40
0
40
1
40
1
40
1
10
57.014067042549399
20
35.849677534561081
30
0
10
57.368746939832185
20
35.853885378718765
30
0
10
57.643149317730675
20
36.01233601767666
30
0
0
SPLINE
5
226
100
AcDbEntity
8
0
100
AcDbSpline
70
0
71
2
72
6
73
3
74
0
42
0.000000001
43
0.0000000001
44
0.0000000001
40
0
40
0
40
0
40
1
40
1
40
1
10
57.643149317730675
20
36.01233601767666
30
0
10
57.91755169562915
20
36.170786656634554
30
0
10
58.043950551506562
20
36.441746194525315
30
0
0
SPLINE
5
227
100
AcDbEntity
8
0
100
AcDbSpline
70
0
71
2
72
6
73
3
74
0
42
0.000000001
43
0.0000000001
44
0.0000000001
40
0
40
0
40
0
40
1
40
1
40
1
10
58.043950551506562
20
36.441746194525315
30
0
10
58.140383467485755
20
36.6509537147343
30
0
10
58.135568695532776
20
37.056791658757895
30
0
0
LINE
5
228
100
AcDbEntity
8
0
100
AcDbLine
10
58.135568695532776
20
37.056791658757895
30
0
11
58.13289831929643
21
37.281878124349866
31
0
0
LINE
5
229
100
AcDbEntity
8
0
100
AcDbLine
10
59.402668717826629
20
35.478942544814444
30
0
11
59.396761518267297
21
35.976861396944457
31
0
0
LINE
5
230
100
AcDbEntity
8
0
100
AcDbLine
10
59.396761518267297
20
35.976861396944457
30
0
11
61.670795621938112
21
38.650683515981839
31
0
0
SPLINE
5
231
100
AcDbEntity
8
0
100
AcDbSpline
70
0
71
2
72
6
73
3
74
0
42
0.000000001
43
0.0000000001
44
0.0000000001
40
0
40
0
40
0
40
1
40
1
40
1
10
61.670795621938112
20
38.650683515981839
30
0
10
61.278843577564722
20
38.62556827853615
30
0
10
60.978726700763417
20
38.622007758032041
30
0
0
LINE
5
232
100
AcDbEntity
8
0
100
AcDbLine
10
60.978726700763417
20
38.622007758032041
30
0
11
59.50202302528848
21
38.604488470976094
31
0
0
LINE
5
233
100
AcDbEntity
8
0
100
AcDbLine
10
59.50202302528848
20
38.604488470976086
30
0
11
59.496115829264582
21
39.102407025103851
31
0
0
LINE
5
234
100
AcDbEntity
8
0
100
AcDbLine
10
59.496115829264582
20
39.102407025103851
30
0
11
62.456343855776886
21
39.137526518207885
31
0
0
LINE
5
235
100
AcDbEntity
8
0
100
AcDbLine
10
62.456343855776886
20
39.137526518207885
30
0
11
62.461158624194439
21
38.731688872186545
31
0
0
LINE
5
236
100
AcDbEntity
8
0
100
AcDbLine
10
62.461158624194439
20
38.731688872186545
30
0
11
60.527450037647071
21
36.409813972975456
31
0
0
LINE
5
237
100
AcDbEntity
8
0
100
AcDbLine
10
60.527450037647071
20
36.409813972975456
30
0
11
60.153870809805966
21
35.985843574771657
31
0
0
SPLINE
5
238
100
AcDbEntity
8
0
100
AcDbSpline
70
0
71
2
72
6
73
3
74
0
42
0.000000001
43
0.0000000001
44
0.0000000001
40
0
40
0
40
0
40
1
40
1
40
1
10
60.153870809805966
20
35.985843574771657
30
0
10
60.56616588286105
20
36.021432908823108
30
0
10
60.927668839724298
20
36.025721700256383
30
0
0
LINE
5
239
100
AcDbEntity
8
0
100
AcDbLine
10
60.927668839724298
20
36.025721700256383
30
0
11
62.602174490527943
21
36.045587666367567
31
0
0
LINE
5
240
100
AcDbEntity
8
0
100
AcDbLine
10
62.602174490527943
20
36.045587666367567
30
0
11
62.608445832622728
21
35.516975178202081
31
0
0
LINE
5
241
100
AcDbEntity
8
0
100
AcDbLine
10
62.608445832622728
20
35.516975178202081
30
0
11
59.402668717826629
21
35.478942544814444
31
0
0
LINE
5
242
100
AcDbEntity
8
0
100
AcDbLine
10
65.684434053581128
20
36.719989762067001
30
0
11
66.319699390600007
21
36.649075812770853
31
0
0
SPLINE
5
243
100
AcDbEntity
8
0
100
AcDbSpline
70
0
71
2
72
6
73
3
74
0
42
0.000000001
43
0.0000000001
44
0.0000000001
40
0
40
0
40
0
40
1
40
1
40
1
10
66.319699390600007
20
36.649075812770853
30
0
10
66.176237162271676
20
36.091400376245296
30
0
10
65.774040047598078
20
35.77964923686671
30
0
0
SPLINE
5
244
100
AcDbEntity
8
0
100
AcDbSpline
70
0
71
2
72
6
73
3
74
0
42
0.000000001
43
0.0000000001
44
0.0000000001
40
0
40
0
40
0
40
1
40
1
40
1
10
65.774040047598078
20
35.77964923686671
30
0
10
65.371842932924494
20
35.467898097488124
30
0
10
64.740919715317929
20
35.460412963440518
30
0
0
SPLINE
5
245
100
AcDbEntity
8
0
100
AcDbSpline
70
0
71
2
72
6
73
3
74
0
42
0.000000001
43
0.0000000001
44
0.0000000001
40
0
40
0
40
0
40
1
40
1
40
1
10
64.740919715317929
20
35.460412963440518
30
0
10
63.946295516176839
20
35.450985717014881
30
0
10
63.474969418153734
20
35.934855897415986
30
0
0
SPLINE
5
246
100
AcDbEntity
8
0
100
AcDbSpline
70
0
71
2
72
6
73
3
74
0
42
0.000000001
43
0.0000000001
44
0.0000000001
40
0
40
0
40
0
40
1
40
1
40
1
10
63.474969418153734
20
35.934855897415986
30
0
10
63.003643327201502
20
36.418725481812601
30
0
10
62.993164123271868
20
37.302019357272137
30
0
0
SPLINE
5
247
100
AcDbEntity
8
0
100
AcDbSpline
70
0
71
2
72
6
73
3
74
0
42
0.000000001
43
0.0000000001
44
0.0000000001
40
0
40
0
40
0
40
1
40
1
40
1
10
62.993164123271868
20
37.302019357272137
30
0
10
62.982320776806787
20
38.216006868767145
30
0
10
63.44696880813558
20
38.726329920050411
30
0
0
SPLINE
5
248
100
AcDbEntity
8
0
100
AcDbSpline
70
0
71
2
72
6
73
3
74
0
42
0.000000001
43
0.0000000001
44
0.0000000001
40
0
40
0
40
0
40
1
40
1
40
1
10
63.44696880813558
20
38.726329920050411
30
0
10
63.911616842999805
20
39.236652673331427
30
0
10
64.661905458976051
20
39.245553932166494
30
0
0
SPLINE
5
249
100
AcDbEntity
8
0
100
AcDbSpline
70
0
71
2
72
6
73
3
74
0
42
0.000000001
43
0.0000000001
44
0.0000000001
40
0
40
0
40
0
40
1
40
1
40
1
10
64.661905458976051
20
39.245553932166494
30
0
10
65.388320518474757
20
39.254171960387382
30
0
10
65.854591199530176
20
38.765125875001729
30
0
0
SPLINE
5
250
100
AcDbEntity
8
0
100
AcDbSpline
70
0
71
2
72
6
73
3
74
0
42
0.000000001
43
0.0000000001
44
0.0000000001
40
0
40
0
40
0
40
1
40
1
40
1
10
65.854591199530176
20
38.765125875001729
30
0
10
66.320861877050191
20
38.276080087618332
30
0
10
66.33150292249951
20
37.379144563031666
30
0
0
SPLINE
5
251
100
AcDbEntity
8
0
100
AcDbSpline
70
0
71
2
72
6
73
3
74
0
42
0.000000001
43
0.0000000001
44
0.0000000001
40
0
40
0
40
0
40
1
40
1
40
1
10
66.33150292249951
20
37.379144563031666
30
0
10
66.332150288578276
20
37.324577966523158
30
0
10
66.330035867892747
20
37.21540492415631
30
0
0
LINE
5
252
100
AcDbEntity
8
0
100
AcDbLine
10
66.330035867892747
20
37.21540492415631
30
0
11
63.628995896771087
21
37.183360381036671
31
0
0
SPLINE
5
253
100
AcDbEntity
8
0
100
AcDbSpline
70
0
71
2
72
6
73
3
74
0
42
0.000000001
43
0.0000000001
44
0.0000000001
40
0
40
0
40
0
40
1
40
1
40
1
10
63.628995896771073
20
37.183360381036671
30
0
10
63.670179820741083
20
36.586944540198452
30
0
10
63.977468647157295
20
36.273378132358502
30
0
0
SPLINE
5
254
100
AcDbEntity
8
0
100
AcDbSpline
70
0
71
2
72
6
73
3
74
0
42
0.000000001
43
0.0000000001
44
0.0000000001
40
0
40
0
40
0
40
1
40
1
40
1
10
63.977468647157295
20
36.273378132358502
30
0
10
64.284757473573521
20
35.959811724518545
30
0
10
64.7383431265567
20
35.965192964770772
30
0
0
SPLINE
5
255
100
AcDbEntity
8
0
100
AcDbSpline
70
0
71
2
72
6
73
3
74
0
42
0.000000001
43
0.0000000001
44
0.0000000001
40
0
40
0
40
0
40
1
40
1
40
1
10
64.7383431265567
20
35.965192964770772
30
0
10
65.075972526942408
20
35.96919852558986
30
0
10
65.312594619425155
20
36.149371859248276
30
0
0
SPLINE
5
256
100
AcDbEntity
8
0
100
AcDbSpline
70
0
71
2
72
6
73
3
74
0
42
0.000000001
43
0.0000000001
44
0.0000000001
40
0
40
0
40
0
40
1
40
1
40
1
10
65.312594619425155
20
36.149371859248276
30
0
10
65.549219102996801
20
36.329544625185648
30
0
10
65.684434053581128
20
36.719989762067001
30
0
0
LINE
5
257
100
AcDbEntity
8
0
100
AcDbLine
10
63.657111159567236
20
37.688504205687522
30
0
11
65.679480800127266
21
37.712497153531181
31
0
0
SPLINE
5
258
100
AcDbEntity
8
0
100
AcDbSpline
70
0
71
2
72
6
73
3
74
0
42
0.000000001
43
0.0000000001
44
0.0000000001
40
0
40
0
40
0
40
1
40
1
40
1
10
65.679480800127266
20
37.712497153531181
30
0
10
65.633135075287811
20
38.169005246324787
30
0
10
65.439440552235681
20
38.395236559353656
30
0
0
SPLINE
5
259
100
AcDbEntity
8
0
100
AcDbSpline
70
0
71
2
72
6
73
3
74
0
42
0.000000001
43
0.0000000001
44
0.0000000001
40
0
40
0
40
0
40
1
40
1
40
1
10
65.439440552235681
20
38.395236559353656
30
0
10
65.141938869644548
20
38.746438671421451
30
0
10
64.674714249554512
20
38.740895621468432
30
0
0
SPLINE
5
260
100
AcDbEntity
8
0
100
AcDbSpline
70
0
71
2
72
6
73
3
74
0
42
0.000000001
43
0.0000000001
44
0.0000000001
40
0
40
0
40
0
40
1
40
1
40
1
10
64.674714249554512
20
38.740895621468432
30
0
10
64.25182282861131
20
38.735878530822518
30
0
10
63.967003315877982
20
38.44939625402727
30
0
0
SPLINE
5
261
100
AcDbEntity
8
0
100
AcDbSpline
70
0
71
2
72
6
73
3
74
0
42
0.000000001
43
0.0000000001
44
0.0000000001
40
0
40
0
40
0
40
1
40
1
40
1
10
63.967003315877982
20
38.44939625402727
30
0
10
63.682181419126628
20
38.162913948948557
30
0
10
63.657111159567236
20
37.688504205687522
30
0
0
SPLINE
5
262
100
AcDbEntity
8
0
100
AcDbSpline
70
0
71
2
72
6
73
3
74
0
42
0.000000001
43
0.0000000001
44
0.0000000001
40
0
40
0
40
0
40
1
40
1
40
1
10
84.99640718207111
20
37.603916358974779
30
0
10
84.99681135890269
20
38.610055496600928
30
0
10
85.556351052404779
20
39.094141747221762
30
0
0
SPLINE
5
263
100
AcDbEntity
8
0
100
AcDbSpline
70
0
71
2
72
6
73
3
74
0
42
0.000000001
43
0.0000000001
44
0.0000000001
40
0
40
0
40
0
40
1
40
1
40
1
10
85.556351052404779
20
39.094141747221762
30
0
10
86.023770483130477
20
39.496409640237658
30
0
10
86.695666767380871
20
39.496139732328146
30
0
0
SPLINE
5
264
100
AcDbEntity
8
0
100
AcDbSpline
70
0
71
2
72
6
73
3
74
0
42
0.000000001
43
0.0000000001
44
0.0000000001
40
0
40
0
40
0
40
1
40
1
40
1
10
86.695666767380871
20
39.496139732328146
30
0
10
87.442597097710646
20
39.495839682441371
30
0
10
87.916479404750717
20
39.00622242809785
30
0
0
SPLINE
5
265
100
AcDbEntity
8
0
100
AcDbSpline
70
0
71
2
72
6
73
3
74
0
42
0.000000001
43
0.0000000001
44
0.0000000001
40
0
40
0
40
0
40
1
40
1
40
1
10
87.916479404750717
20
39.00622242809785
30
0
10
88.390362009694286
20
38.516604875611407
30
0
10
88.390015376686449
20
37.653712675146295
30
0
0
SPLINE
5
266
100
AcDbEntity
8
0
100
AcDbSpline
70
0
71
2
72
6
73
3
74
0
42
0.000000001
43
0.0000000001
44
0.0000000001
40
0
40
0
40
0
40
1
40
1
40
1
10
88.390015376686449
20
37.653712675146295
30
0
10
88.389734508014399
20
36.954531174858609
30
0
10
88.179819429999654
20
36.55386542664337
30
0
0
SPLINE
5
267
100
AcDbEntity
8
0
100
AcDbSpline
70
0
71
2
72
6
73
3
74
0
42
0.000000001
43
0.0000000001
44
0.0000000001
40
0
40
0
40
0
40
1
40
1
40
1
10
88.179819429999654
20
36.55386542664337
30
0
10
87.969903755699065
20
36.153199082621171
30
0
10
87.569064691099641
20
35.931668358426563
30
0
0
SPLINE
5
268
100
AcDbEntity
8
0
100
AcDbSpline
70
0
71
2
72
6
73
3
74
0
42
0.000000001
43
0.0000000001
44
0.0000000001
40
0
40
0
40
0
40
1
40
1
40
1
10
87.569064691099641
20
35.931668358426563
30
0
10
87.168225030453797
20
35.710137634471387
30
0
10
86.694145966427456
20
35.710328077091944
30
0
0
SPLINE
5
269
100
AcDbEntity
8
0
100
AcDbSpline
70
0
71
2
72
6
73
3
74
0
42
0.000000001
43
0.0000000001
44
0.0000000001
40
0
40
0
40
0
40
1
40
1
40
1
10
86.694145966427456
20
35.710328077091944
30
0
10
85.933573028079039
20
35.710633607359988
30
0
10
85.464805827988201
20
36.198544113932329
30
0
0
SPLINE
5
270
100
AcDbEntity
8
0
100
AcDbSpline
70
0
71
2
72
6
73
3
74
0
42
0.000000001
43
0.0000000001
44
0.0000000001
40
0
40
0
40
0
40
1
40
1
40
1
10
85.464805827988201
20
36.198544113932329
30
0
10
84.996038627657924
20
36.686454024458264
30
0
10
84.99640718207111
20
37.603916358974779
30
0
0
SPLINE
5
271
100
AcDbEntity
8
0
100
AcDbSpline
70
0
71
2
72
6
73
3
74
0
42
0.000000001
43
0.0000000001
44
0.0000000001
40
0
40
0
40
0
40
1
40
1
40
1
10
85.627375791277146
20
37.60366289214921
30
0
10
85.627096292790199
20
36.907892267383588
30
0
10
85.930504213853354
20
36.561590156674399
30
0
0
SPLINE
5
272
100
AcDbEntity
8
0
100
AcDbSpline
70
0
71
2
72
6
73
3
74
0
42
0.000000001
43
0.0000000001
44
0.0000000001
40
0
40
0
40
0
40
1
40
1
40
1
10
85.930504213853354
20
36.561590156674399
30
0
10
86.23391228392812
20
36.215288045905339
30
0
10
86.694348739935805
20
36.215103083666051
30
0
0
SPLINE
5
273
100
AcDbEntity
8
0
100
AcDbSpline
70
0
71
2
72
6
73
3
74
0
42
0.000000001
43
0.0000000001
44
0.0000000001
40
0
40
0
40
0
40
1
40
1
40
1
10
86.694348739935805
20
36.215103083666051
30
0
10
87.151374618444635
20
36.214919491492154
30
0
10
87.455061427587566
20
36.562683014792427
30
0
0
SPLINE
5
274
100
AcDbEntity
8
0
100
AcDbSpline
70
0
71
2
72
6
73
3
74
0
42
0.000000001
43
0.0000000001
44
0.0000000001
40
0
40
0
40
0
40
1
40
1
40
1
10
87.455061427587566
20
36.562683014792427
30
0
10
87.758747938707288
20
36.910446538212419
30
0
10
87.759034287640887
20
37.623270348495559
30
0
0
SPLINE
5
275
100
AcDbEntity
8
0
100
AcDbSpline
70
0
71
2
72
6
73
3
74
0
42
0.000000001
43
0.0000000001
44
0.0000000001
40
0
40
0
40
0
40
1
40
1
40
1
10
87.759034287640887
20
37.623270348495559
30
0
10
87.759304195550399
20
38.295166632745946
30
0
10
87.4541912092552
20
38.64146942839804
30
0
0
SPLINE
5
276
100
AcDbEntity
8
0
100
AcDbSpline
70
0
71
2
72
6
73
3
74
0
42
0.000000001
43
0.0000000001
44
0.0000000001
40
0
40
0
40
0
40
1
40
1
40
1
10
87.4541912092552
20
38.64146942839804
30
0
10
87.149077924936819
20
38.987772224169859
30
0
10
86.695462623926858
20
38.987954446278373
30
0
0
SPLINE
5
277
100
AcDbEntity
8
0
100
AcDbSpline
70
0
71
2
72
6
73
3
74
0
42
0.000000001
43
0.0000000001
44
0.0000000001
40
0
40
0
40
0
40
1
40
1
40
1
10
86.695462623926858
20
38.987954446278373
30
0
10
86.235026167919173
20
38.988139408517661
30
0
10
85.931340654335827
20
38.643786462746178
30
0
0
SPLINE
5
278
100
AcDbEntity
8
0
100
AcDbSpline
70
0
71
2
72
6
73
3
74
0
42
0.000000001
43
0.0000000001
44
0.0000000001
40
0
40
0
40
0
40
1
40
1
40
1
10
85.931340654335827
20
38.643786462746178
30
0
10
85.627655289883805
20
38.299433814938041
30
0
10
85.627375791277146
20
37.60366289214921
30
0
0
LINE
5
279
100
AcDbEntity
8
0
100
AcDbLine
10
91.482718915066954
20
35.790260117544108
30
0
11
91.48293264933784
21
36.322320340155521
31
0
0
SPLINE
5
280
100
AcDbEntity
8
0
100
AcDbSpline
70
0
71
2
72
6
73
3
74
0
42
0.000000001
43
0.0000000001
44
0.0000000001
40
0
40
0
40
0
40
1
40
1
40
1
10
91.48293264933784
20
36.322320340155521
30
0
10
91.059766078270755
20
35.708574360892371
30
0
10
90.333299957992153
20
35.708866190087519
30
0
0
SPLINE
5
281
100
AcDbEntity
8
0
100
AcDbSpline
70
0
71
2
72
6
73
3
74
0
42
0.000000001
43
0.0000000001
44
0.0000000001
40
0
40
0
40
0
40
1
40
1
40
1
10
90.333299957992153
20
35.708866190087519
30
0
10
90.01269971263504
20
35.708994978628319
30
0
10
89.734781605371822
20
35.831889815257
30
0
0
SPLINE
5
282
100
AcDbEntity
8
0
100
AcDbSpline
70
0
71
2
72
6
73
3
74
0
42
0.000000001
43
0.0000000001
44
0.0000000001
40
0
40
0
40
0
40
1
40
1
40
1
10
89.734781605371822
20
35.831889815257
30
0
10
89.456863796131785
20
35.954784651765955
30
0
10
89.32221797271815
20
36.140718820392657
30
0
0
SPLINE
5
283
100
AcDbEntity
8
0
100
AcDbSpline
70
0
71
2
72
6
73
3
74
0
42
0.000000001
43
0.0000000001
44
0.0000000001
40
0
40
0
40
0
40
1
40
1
40
1
10
89.32221797271815
20
36.140718820392657
30
0
10
89.18757244732771
20
36.326652988899639
30
0
10
89.133110252334205
20
36.596115301206076
30
0
0
SPLINE
5
284
100
AcDbEntity
8
0
100
AcDbSpline
70
0
71
2
72
6
73
3
74
0
42
0.000000001
43
0.0000000001
44
0.0000000001
40
0
40
0
40
0
40
1
40
1
40
1
10
89.133110252334205
20
36.596115301206076
30
0
10
89.095665918702466
20
36.776894555882912
30
0
10
89.095823479095273
20
37.169118120808939
30
0
0
LINE
5
285
100
AcDbEntity
8
0
100
AcDbLine
10
89.095823479095273
20
37.169118120808939
30
0
11
89.096724998880831
21
39.413319838308716
31
0
0
LINE
5
286
100
AcDbEntity
8
0
100
AcDbLine
10
89.096724998880859
20
39.413319838308716
30
0
11
89.710640273557772
21
39.413073221989663
31
0
0
LINE
5
287
100
AcDbEntity
8
0
100
AcDbLine
10
89.710640273557772
20
39.413073221989663
30
0
11
89.709833290079715
21
37.404205822259428
31
0
0
SPLINE
5
288
100
AcDbEntity
8
0
100
AcDbSpline
70
0
71
2
72
6
73
3
74
0
42
0.000000001
43
0.0000000001
44
0.0000000001
40
0
40
0
40
0
40
1
40
1
40
1
10
89.709833290079715
20
37.404205822259428
30
0
10
89.7096401071488
20
36.923305156200563
30
0
10
89.747090219304724
20
36.75616880744586
30
0
0
SPLINE
5
289
100
AcDbEntity
8
0
100
AcDbSpline
70
0
71
2
72
6
73
3
74
0
42
0.000000001
43
0.0000000001
44
0.0000000001
40
0
40
0
40
0
40
1
40
1
40
1
10
89.747090219304724
20
36.75616880744586
30
0
10
89.804973654536425
20
36.51399034123105
30
0
10
89.992503504406898
20
36.375783617262172
30
0
0
SPLINE
5
290
100
AcDbEntity
8
0
100
AcDbSpline
70
0
71
2
72
6
73
3
74
0
42
0.000000001
43
0.0000000001
44
0.0000000001
40
0
40
0
40
0
40
1
40
1
40
1
10
89.992503504406898
20
36.375783617262172
30
0
10
90.180033354516823
20
36.237577489339692
30
0
10
90.456295496342307
20
36.237466511888371
30
0
0
SPLINE
5
291
100
AcDbEntity
8
0
100
AcDbSpline
70
0
71
2
72
6
73
3
74
0
42
0.000000001
43
0.0000000001
44
0.0000000001
40
0
40
0
40
0
40
1
40
1
40
1
10
90.456295496342307
20
36.237466511888371
30
0
10
90.732557042121414
20
36.237355534676482
30
0
10
90.974769671583203
20
36.378799608506888
30
0
0
SPLINE
5
292
100
AcDbEntity
8
0
100
AcDbSpline
70
0
71
2
72
6
73
3
74
0
42
0.000000001
43
0.0000000001
44
0.0000000001
40
0
40
0
40
0
40
1
40
1
40
1
10
90.974769671583203
20
36.378799608506888
30
0
10
91.216981705238027
20
36.520244278623125
30
0
10
91.317693490944961
20
36.764064324469381
30
0
0
SPLINE
5
293
100
AcDbEntity
8
0
100
AcDbSpline
70
0
71
2
72
6
73
3
74
0
42
0.000000001
43
0.0000000001
44
0.0000000001
40
0
40
0
40
0
40
1
40
1
40
1
10
91.317693490944961
20
36.764064324469381
30
0
10
91.418405872937711
20
37.007884966122596
30
0
10
91.418592205302232
20
37.471732148640747
30
0
0
LINE
5
294
100
AcDbEntity
8
0
100
AcDbLine
10
91.418592205302232
20
37.471732148640747
30
0
11
91.419371786993665
21
39.412386806300923
31
0
0
LINE
5
295
100
AcDbEntity
8
0
100
AcDbLine
10
91.419371786993665
20
39.412386806300923
30
0
11
92.033286465624187
21
39.412140190221308
31
0
0
LINE
5
296
100
AcDbEntity
8
0
100
AcDbLine
10
92.033286465624187
20
39.412140190221308
30
0
11
92.031831429126285
21
35.790039533185734
31
0
0
LINE
5
297
100
AcDbEntity
8
0
100
AcDbLine
10
92.031831429126285
20
35.790039533185734
30
0
11
91.482718915066954
21
35.790260117544108
31
0
0
LINE
5
298
100
AcDbEntity
8
0
100
AcDbLine
10
94.334234740797342
20
36.338227831915425
30
0
11
94.422693699439947
21
35.795900254389046
31
0
0
SPLINE
5
299
100
AcDbEntity
8
0
100
AcDbSpline
70
0
71
2
72
6
73
3
74
0
42
0.000000001
43
0.0000000001
44
0.0000000001
40
0
40
0
40
0
40
1
40
1
40
1
10
94.422693699439932
20
35.795900254389039
30
0
10
94.163463119869533
20
35.741434545245781
30
0
10
93.95882489365934
20
35.741516750605655
30
0
0
SPLINE
5
300
100
AcDbEntity
8
0
100
AcDbSpline
70
0
71
2
72
6
73
3
74
0
42
0.000000001
43
0.0000000001
44
0.0000000001
40
0
40
0
40
0
40
1
40
1
40
1
10
93.95882489365934
20
35.741516750605655
30
0
10
93.624581742260375
20
35.741651019647435
30
0
10
93.440449453788716
20
35.847454695218929
30
0
0
SPLINE
5
301
100
AcDbEntity
8
0
100
AcDbSpline
70
0
71
2
72
6
73
3
74
0
42
0.000000001
43
0.0000000001
44
0.0000000001
40
0
40
0
40
0
40
1
40
1
40
1
10
93.440449453788716
20
35.847454695218929
30
0
10
93.256317761363448
20
35.953258370550991
30
0
10
93.181352457748517
20
36.125525656632405
30
0
0
SPLINE
5
302
100
AcDbEntity
8
0
100
AcDbSpline
70
0
71
2
72
6
73
3
74
0
42
0.000000001
43
0.0000000001
44
0.0000000001
40
0
40
0
40
0
40
1
40
1
40
1
10
93.181352457748517
20
36.125525656632405
30
0
10
93.106387750419429
20
36.297793538520779
30
0
10
93.106609705082633
20
36.850317226125362
30
0
0
LINE
5
303
100
AcDbEntity
8
0
100
AcDbLine
10
93.106609705082633
20
36.850317226125362
30
0
11
93.107446830597794
21
38.934218820946583
31
0
0
LINE
5
304
100
AcDbEntity
8
0
100
AcDbLine
10
93.107446830597794
20
38.934218820946583
30
0
11
92.657242256098286
21
38.934399672929857
31
0
0
LINE
5
305
100
AcDbEntity
8
0
100
AcDbLine
10
92.657242256098286
20
38.93439967292985
30
0
11
92.657434068844097
21
39.41188946346665
31
0
0
LINE
5
306
100
AcDbEntity
8
0
100
AcDbLine
10
92.657434068844097
20
39.411889463466657
30
0
11
93.107638643343606
21
39.411708611483391
31
0
0
LINE
5
307
100
AcDbEntity
8
0
100
AcDbLine
10
93.107638643343591
20
39.411708611483391
30
0
11
93.107998977244733
21
40.308707182983525
31
0
0
LINE
5
308
100
AcDbEntity
8
0
100
AcDbLine
10
93.107998977244733
20
40.308707182983525
30
0
11
93.718651644238165
21
40.676811161140655
31
0
0
LINE
5
309
100
AcDbEntity
8
0
100
AcDbLine
10
93.718651644238165
20
40.676811161140655
30
0
11
93.718143340521635
21
39.411463365229721
31
0
0
LINE
5
310
100
AcDbEntity
8
0
100
AcDbLine
10
93.718143340521635
20
39.411463365229721
30
0
11
94.335469192697431
21
39.411215378845284
31
0
0
LINE
5
311
100
AcDbEntity
8
0
100
AcDbLine
10
94.335469192697431
20
39.411215378845284
30
0
11
94.33527737995162
21
38.933725588308484
31
0
0
LINE
5
312
100
AcDbEntity
8
0
100
AcDbLine
10
94.335277379951634
20
38.933725588308477
30
0
11
93.717951527775853
21
38.933973574692914
31
0
0
LINE
5
313
100
AcDbEntity
8
0
100
AcDbLine
10
93.717951527775853
20
38.933973574692914
30
0
11
93.717100701367372
21
36.81596560883667
31
0
0
SPLINE
5
314
100
AcDbEntity
8
0
100
AcDbSpline
70
0
71
2
72
6
73
3
74
0
42
0.000000001
43
0.0000000001
44
0.0000000001
40
0
40
0
40
0
40
1
40
1
40
1
10
93.717100701367372
20
36.81596560883667
30
0
10
93.716995204417032
20
36.553346373053024
30
0
10
93.749366144545803
20
36.478298864078226
30
0
0
SPLINE
5
315
100
AcDbEntity
8
0
100
AcDbSpline
70
0
71
2
72
6
73
3
74
0
42
0.000000001
43
0.0000000001
44
0.0000000001
40
0
40
0
40
0
40
1
40
1
40
1
10
93.749366144545803
20
36.478298864078226
30
0
10
93.781737084913999
20
36.403251951149826
30
0
10
93.855047882142884
20
36.3588843907335
30
0
0
SPLINE
5
316
100
AcDbEntity
8
0
100
AcDbSpline
70
0
71
2
72
6
73
3
74
0
42
0.000000001
43
0.0000000001
44
0.0000000001
40
0
40
0
40
0
40
1
40
1
40
1
10
93.855047882142884
20
36.3588843907335
30
0
10
93.928359275178707
20
36.314516234031345
30
0
10
94.064784759318826
20
36.314461430458095
30
0
0
SPLINE
5
317
100
AcDbEntity
8
0
100
AcDbSpline
70
0
71
2
72
6
73
3
74
0
42
0.000000001
43
0.0000000001
44
0.0000000001
40
0
40
0
40
0
40
1
40
1
40
1
10
94.064784759318826
20
36.314461430458095
30
0
10
94.167103872423908
20
36.314420327778159
30
0
10
94.334234740797342
20
36.338227831915425
30
0
0
LINE
5
318
100
AcDbEntity
8
0
100
AcDbLine
10
94.463619081388316
20
35.78906265812779
30
0
11
96.385817933195952
21
40.788290893759232
31
0
0
LINE
5
319
100
AcDbEntity
8
0
100
AcDbLine
10
96.385817933195952
20
40.788290893759225
30
0
11
97.098641743479106
21
40.788004544825618
31
0
0
LINE
5
320
100
AcDbEntity
8
0
100
AcDbLine
10
97.098641743479106
20
40.788004544825625
30
0
11
99.143017836556183
21
35.787182893697775
31
0
0
LINE
5
321
100
AcDbEntity
8
0
100
AcDbLine
10
99.143017836556183
20
35.787182893697775
30
0
11
98.389267096286687
21
35.787485683416023
31
0
0
LINE
5
322
100
AcDbEntity
8
0
100
AcDbLine
10
98.389267096286687
20
35.787485683416023
30
0
11
97.806655935431536
21
37.30204439258307
31
0
0
LINE
5
323
100
AcDbEntity
8
0
100
AcDbLine
10
97.806655935431536
20
37.30204439258307
30
0
11
95.715932589566179
21
37.302884258468453
31
0
0
LINE
5
324
100
AcDbEntity
8
0
100
AcDbLine
10
95.715932589566179
20
37.302884258468453
30
0
11
95.166210563128459
21
35.788780419629788
31
0
0
LINE
5
325
100
AcDbEntity
8
0
100
AcDbLine
10
95.166210563128459
20
35.788780419629788
30
0
11
94.463619081388316
21
35.78906265812779
31
0
0
LINE
5
326
100
AcDbEntity
8
0
100
AcDbLine
10
95.907144980182565
20
37.841688910979265
30
0
11
97.602232991530229
21
37.841007976030959
31
0
0
LINE
5
327
100
AcDbEntity
8
0
100
AcDbLine
10
97.602232991530201
20
37.841007976030959
30
0
11
97.080961354424616
21
39.225937992422963
31
0
0
SPLINE
5
328
100
AcDbEntity
8
0
100
AcDbSpline
70
0
71
2
72
6
73
3
74
0
42
0.000000001
43
0.0000000001
44
0.0000000001
40
0
40
0
40
0
40
1
40
1
40
1
10
97.080961354424616
20
39.225937992422963
30
0
10
96.842470819991533
20
39.857002358631142
30
0
10
96.726671841618668
20
40.262915114756751
30
0
0
SPLINE
5
329
100
AcDbEntity
8
0
100
AcDbSpline
70
0
71
2
72
6
73
3
74
0
42
0.000000001
43
0.0000000001
44
0.0000000001
40
0
40
0
40
0
40
1
40
1
40
1
10
96.726671841618668
20
40.262915114756751
30
0
10
96.630980104653702
20
39.782053109509683
30
0
10
96.456847825465402
20
39.308044068787453
30
0
0
LINE
5
330
100
AcDbEntity
8
0
100
AcDbLine
10
96.456847825465402
20
39.308044068787453
30
0
11
95.907144980182565
21
37.841688910979265
31
0
0
LINE
5
331
100
AcDbEntity
8
0
100
AcDbLine
10
101.95732969057363
20
37.112791951665891
30
0
11
102.56098112460506
21
37.034104673192594
31
0
0
SPLINE
5
332
100
AcDbEntity
8
0
100
AcDbSpline
70
0
71
2
72
6
73
3
74
0
42
0.000000001
43
0.0000000001
44
0.0000000001
40
0
40
0
40
0
40
1
40
1
40
1
10
102.56098112460506
20
37.034104673192587
30
0
10
102.4618224582906
20
36.409996802347791
30
0
10
102.05410889417186
20
36.057159200631574
30
0
0
SPLINE
5
333
100
AcDbEntity
8
0
100
AcDbSpline
70
0
71
2
72
6
73
3
74
0
42
0.000000001
43
0.0000000001
44
0.0000000001
40
0
40
0
40
0
40
1
40
1
40
1
10
102.05410889417186
20
36.057159200631574
30
0
10
101.64639533005314
20
35.70432159891535
30
0
10
101.0529441164158
20
35.70455999460264
30
0
0
SPLINE
5
334
100
AcDbEntity
8
0
100
AcDbSpline
70
0
71
2
72
6
73
3
74
0
42
0.000000001
43
0.0000000001
44
0.0000000001
40
0
40
0
40
0
40
1
40
1
40
1
10
101.0529441164158
20
35.70455999460264
30
0
10
100.30942391655009
20
35.704858674603607
30
0
10
99.85770988749627
20
36.191057041710486
30
0
0
SPLINE
5
335
100
AcDbEntity
8
0
100
AcDbSpline
70
0
71
2
72
6
73
3
74
0
42
0.000000001
43
0.0000000001
44
0.0000000001
40
0
40
0
40
0
40
1
40
1
40
1
10
99.85770988749627
20
36.191057041710486
30
0
10
99.405994666110203
20
36.677254813249853
30
0
10
99.406359110207518
20
37.584485117246579
30
0
0
SPLINE
5
336
100
AcDbEntity
8
0
100
AcDbSpline
70
0
71
2
72
6
73
3
74
0
42
0.000000001
43
0.0000000001
44
0.0000000001
40
0
40
0
40
0
40
1
40
1
40
1
10
99.406359110207518
20
37.584485117246579
30
0
10
99.406594765883739
20
38.171115473909396
30
0
10
99.601178001264714
20
38.611009922725394
30
0
0
SPLINE
5
337
100
AcDbEntity
8
0
100
AcDbSpline
70
0
71
2
72
6
73
3
74
0
42
0.000000001
43
0.0000000001
44
0.0000000001
40
0
40
0
40
0
40
1
40
1
40
1
10
99.601178001264714
20
38.611009922725394
30
0
10
99.795761236765401
20
39.050904669564595
30
0
10
100.19318963487969
20
39.270731474835728
30
0
0
SPLINE
5
338
100
AcDbEntity
8
0
100
AcDbSpline
70
0
71
2
72
6
73
3
74
0
42
0.000000001
43
0.0000000001
44
0.0000000001
40
0
40
0
40
0
40
1
40
1
40
1
10
100.19318963487969
20
39.270731474835728
30
0
10
100.59061684078145
20
39.490557982562535
30
0
10
101.05787549486806
20
39.490370279773458
30
0
0
SPLINE
5
339
100
AcDbEntity
8
0
100
AcDbSpline
70
0
71
2
72
6
73
3
74
0
42
0.000000001
43
0.0000000001
44
0.0000000001
40
0
40
0
40
0
40
1
40
1
40
1
10
101.05787549486806
20
39.490370279773458
30
0
10
101.64791613100654
20
39.490133254151552
30
0
10
102.02296692556192
20
39.191551648517581
30
0
0
SPLINE
5
340
100
AcDbEntity
8
0
100
AcDbSpline
70
0
71
2
72
6
73
3
74
0
42
0.000000001
43
0.0000000001
44
0.0000000001
40
0
40
0
40
0
40
1
40
1
40
1
10
102.02296692556192
20
39.191551648517581
30
0
10
102.39801771999758
20
38.892969744860409
30
0
10
102.50352622995732
20
38.343814162248798
30
0
0
LINE
5
341
100
AcDbEntity
8
0
100
AcDbLine
10
102.50352622995732
20
38.343814162248798
30
0
11
101.90662744633734
21
38.251966547392975
31
0
0
SPLINE
5
342
100
AcDbEntity
8
0
100
AcDbSpline
70
0
71
2
72
6
73
3
74
0
42
0.000000001
43
0.0000000001
44
0.0000000001
40
0
40
0
40
0
40
1
40
1
40
1
10
101.90662744633734
20
38.251966547392975
30
0
10
101.82150841652295
20
38.616939446418471
30
0
10
101.60500655786819
20
38.801200910440429
30
0
0
SPLINE
5
343
100
AcDbEntity
8
0
100
AcDbSpline
70
0
71
2
72
6
73
3
74
0
42
0.000000001
43
0.0000000001
44
0.0000000001
40
0
40
0
40
0
40
1
40
1
40
1
10
101.60500655786819
20
38.801200910440429
30
0
10
101.38850469933314
20
38.985462672485589
30
0
10
101.08154676397149
20
38.985585980764832
30
0
0
SPLINE
5
344
100
AcDbEntity
8
0
100
AcDbSpline
70
0
71
2
72
6
73
3
74
0
42
0.000000001
43
0.0000000001
44
0.0000000001
40
0
40
0
40
0
40
1
40
1
40
1
10
101.08154676397149
20
38.985585980764832
30
0
10
100.61769987947653
20
38.985772313009655
30
0
10
100.32766124771982
20
38.653351206335628
30
0
0
SPLINE
5
345
100
AcDbEntity
8
0
100
AcDbSpline
70
0
71
2
72
6
73
3
74
0
42
0.000000001
43
0.0000000001
44
0.0000000001
40
0
40
0
40
0
40
1
40
1
40
1
10
100.32766124771982
20
38.653351206335628
30
0
10
100.0376238080559
20
38.320930099182732
30
0
10
100.03733471899153
20
37.601285133901861
30
0
0
SPLINE
5
346
100
AcDbEntity
8
0
100
AcDbSpline
70
0
71
2
72
6
73
3
74
0
42
0.000000001
43
0.0000000001
44
0.0000000001
40
0
40
0
40
0
40
1
40
1
40
1
10
100.03733471899153
20
37.601285133901861
30
0
10
100.03704151949154
20
36.871407840078007
30
0
10
100.31658074379311
20
36.540462918900637
30
0
0
SPLINE
5
347
100
AcDbEntity
8
0
100
AcDbSpline
70
0
71
2
72
6
73
3
74
0
42
0.000000001
43
0.0000000001
44
0.0000000001
40
0
40
0
40
0
40
1
40
1
40
1
10
100.31658074379311
20
36.540462918900637
30
0
10
100.59612116042692
20
36.209518593290795
30
0
10
101.0463257349264
20
36.209337741307522
30
0
0
SPLINE
5
348
100
AcDbEntity
8
0
100
AcDbSpline
70
0
71
2
72
6
73
3
74
0
42
0.000000001
43
0.0000000001
44
0.0000000001
40
0
40
0
40
0
40
1
40
1
40
1
10
101.0463257349264
20
36.209337741307522
30
0
10
101.40785291026987
20
36.209192511982081
30
0
10
101.65009773698658
20
36.430786945174958
30
0
0
SPLINE
5
349
100
AcDbEntity
8
0
100
AcDbSpline
70
0
71
2
72
6
73
3
74
0
42
0.000000001
43
0.0000000001
44
0.0000000001
40
0
40
0
40
0
40
1
40
1
40
1
10
101.65009773698658
20
36.430786945174958
30
0
10
101.89234256370329
20
36.652381378367835
30
0
10
101.95732969057363
20
37.112791951665891
30
0
0
LINE
5
350
100
AcDbEntity
8
0
100
AcDbLine
10
105.39416559015775
20
34.396540844880434
30
0
11
105.39487803732828
21
36.170073926841127
31
0
0
SPLINE
5
351
100
AcDbEntity
8
0
100
AcDbSpline
70
0
71
2
72
6
73
3
74
0
42
0.000000001
43
0.0000000001
44
0.0000000001
40
0
40
0
40
0
40
1
40
1
40
1
10
105.39487803732828
20
36.170073926841134
30
0
10
105.25155056289594
20
35.968903821833848
30
0
10
104.99399554799196
20
35.835992356326528
30
0
0
SPLINE
5
352
100
AcDbEntity
8
0
100
AcDbSpline
70
0
71
2
72
6
73
3
74
0
42
0.000000001
43
0.0000000001
44
0.0000000001
40
0
40
0
40
0
40
1
40
1
40
1
10
104.99399554799196
20
35.835992356326528
30
0
10
104.7364369565701
20
35.70308029620945
30
0
10
104.44653310079556
20
35.703196753682882
30
0
0
SPLINE
5
353
100
AcDbEntity
8
0
100
AcDbSpline
70
0
71
2
72
6
73
3
74
0
42
0.000000001
43
0.0000000001
44
0.0000000001
40
0
40
0
40
0
40
1
40
1
40
1
10
104.44653310079556
20
35.703196753682882
30
0
10
103.80192203258247
20
35.703455700829856
30
0
10
103.33657614699619
20
36.218649457417499
30
0
0
SPLINE
5
354
100
AcDbEntity
8
0
100
AcDbSpline
70
0
71
2
72
6
73
3
74
0
42
0.000000001
43
0.0000000001
44
0.0000000001
40
0
40
0
40
0
40
1
40
1
40
1
10
103.33657614699619
20
36.218649457417499
30
0
10
102.87123026164936
20
36.733843810051546
30
0
10
102.8715905955505
20
37.63084238155168
30
0
0
SPLINE
5
355
100
AcDbEntity
8
0
100
AcDbSpline
70
0
71
2
72
6
73
3
74
0
42
0.000000001
43
0.0000000001
44
0.0000000001
40
0
40
0
40
0
40
1
40
1
40
1
10
102.8715905955505
20
37.63084238155168
30
0
10
102.87180981008292
20
38.176544914158541
30
0
10
103.06127384291871
20
38.609619965291138
30
0
0
SPLINE
5
356
100
AcDbEntity
8
0
100
AcDbSpline
70
0
71
2
72
6
73
3
74
0
42
0.000000001
43
0.0000000001
44
0.0000000001
40
0
40
0
40
0
40
1
40
1
40
1
10
103.06127384291871
20
38.609619965291138
30
0
10
103.25073906808674
20
39.042695611991263
30
0
10
103.61065129168611
20
39.265948065959392
30
0
0
SPLINE
5
357
100
AcDbEntity
8
0
100
AcDbSpline
70
0
71
2
72
6
73
3
74
0
42
0.000000001
43
0.0000000001
44
0.0000000001
40
0
40
0
40
0
40
1
40
1
40
1
10
103.61065129168611
20
39.265948065959392
30
0
10
103.97056351528548
20
39.489200519927522
30
0
10
104.4003046247918
20
39.489027888336572
30
0
0
SPLINE
5
358
100
AcDbEntity
8
0
100
AcDbSpline
70
0
71
2
72
6
73
3
74
0
42
0.000000001
43
0.0000000001
44
0.0000000001
40
0
40
0
40
0
40
1
40
1
40
1
10
104.4003046247918
20
39.489027888336572
30
0
10
105.07220031299579
20
39.488757980666499
30
0
10
105.4573764798527
20
38.922436566279153
30
0
0
LINE
5
359
100
AcDbEntity
8
0
100
AcDbLine
10
105.4573764798527
20
38.922436566279153
30
0
11
105.45757103272928
21
39.406747511813684
31
0
0
LINE
5
360
100
AcDbEntity
8
0
100
AcDbLine
10
105.45757103272928
20
39.406747511813684
30
0
11
106.01009174010187
21
39.406525558347667
31
0
0
LINE
5
361
100
AcDbEntity
8
0
100
AcDbLine
10
106.01009174010187
20
39.406525558347667
30
0
11
106.00807907669547
21
34.396294229279697
31
0
0
LINE
5
362
100
AcDbEntity
8
0
100
AcDbLine
10
106.00807907669548
20
34.396294229279697
30
0
11
105.39416559015777
21
34.396540844880434
31
0
0
SPLINE
5
363
100
AcDbEntity
8
0
100
AcDbSpline
70
0
71
2
72
6
73
3
74
0
42
0.000000001
43
0.0000000001
44
0.0000000001
40
0
40
0
40
0
40
1
40
1
40
1
10
103.50254976307099
20
37.606714276127818
30
0
10
103.50226889439894
20
36.907532775840124
30
0
10
103.79544289333631
20
36.557824198157462
30
0
0
SPLINE
5
364
100
AcDbEntity
8
0
100
AcDbSpline
70
0
71
2
72
6
73
3
74
0
42
0.000000001
43
0.0000000001
44
0.0000000001
40
0
40
0
40
0
40
1
40
1
40
1
10
103.79544289333631
20
36.557824198157462
30
0
10
104.08861808436652
20
36.208115619995915
30
0
10
104.49789453678684
20
36.207951209276175
30
0
0
SPLINE
5
365
100
AcDbEntity
8
0
100
AcDbSpline
70
0
71
2
72
6
73
3
74
0
42
0.000000001
43
0.0000000001
44
0.0000000001
40
0
40
0
40
0
40
1
40
1
40
1
10
104.49789453678684
20
36.207951209276175
30
0
10
104.89011929380567
20
36.20779364840449
30
0
10
105.17333557859159
20
36.540217793711363
30
0
0
SPLINE
5
366
100
AcDbEntity
8
0
100
AcDbSpline
70
0
71
2
72
6
73
3
74
0
42
0.000000001
43
0.0000000001
44
0.0000000001
40
0
40
0
40
0
40
1
40
1
40
1
10
105.17333557859159
20
36.540217793711363
30
0
10
105.45655305523086
20
36.872641342492962
30
0
10
105.45682570327115
20
37.551358781741072
30
0
0
SPLINE
5
367
100
AcDbEntity
8
0
100
AcDbSpline
70
0
71
2
72
6
73
3
74
0
42
0.000000001
43
0.0000000001
44
0.0000000001
40
0
40
0
40
0
40
1
40
1
40
1
10
105.45682570327115
20
37.551358781741072
30
0
10
105.45711616264035
20
38.274414920567203
30
0
10
105.15882948251689
20
38.639473153290027
30
0
0
SPLINE
5
368
100
AcDbEntity
8
0
100
AcDbSpline
70
0
71
2
72
6
73
3
74
0
42
0.000000001
43
0.0000000001
44
0.0000000001
40
0
40
0
40
0
40
1
40
1
40
1
10
105.15882948251689
20
38.639473153290027
30
0
10
104.86054637891131
20
39.004531980622616
30
0
10
104.4580910814887
20
39.004693651211582
30
0
0
SPLINE
5
369
100
AcDbEntity
8
0
100
AcDbSpline
70
0
71
2
72
6
73
3
74
0
42
0.000000001
43
0.0000000001
44
0.0000000001
40
0
40
0
40
0
40
1
40
1
40
1
10
104.4580910814887
20
39.004693651211582
30
0
10
104.05904516947214
20
39.004853952214042
30
0
10
103.78094260685015
20
38.665606596571926
30
0
0
SPLINE
5
370
100
AcDbEntity
8
0
100
AcDbSpline
70
0
71
2
72
6
73
3
74
0
42
0.000000001
43
0.0000000001
44
0.0000000001
40
0
40
0
40
0
40
1
40
1
40
1
10
103.78094260685015
20
38.665606596571926
30
0
10
103.50283885213535
20
38.326359241408682
30
0
10
103.50254976307099
20
37.606714276127818
30
0
0
LINE
5
371
100
AcDbEntity
8
0
100
AcDbLine
10
139.65766571874963
20
35.80834132493294
30
0
11
141.57785691733704
21
40.80834132493294
31
0
0
LINE
5
372
100
AcDbEntity
8
0
100
AcDbLine
10
141.57785691733704
20
40.80834132493294
30
0
11
142.29068063612328
21
40.80834132493294
31
0
0
LINE
5
373
100
AcDbEntity
8
0
100
AcDbLine
10
142.29068063612328
20
40.80834132493294
30
0
11
144.33706544752465
21
35.80834132493294
31
0
0
LINE
5
374
100
AcDbEntity
8
0
100
AcDbLine
10
144.33706544752465
20
35.80834132493294
30
0
11
143.58331375236855
21
35.80834132493294
31
0
0
LINE
5
375
100
AcDbEntity
8
0
100
AcDbLine
10
143.58331375236855
20
35.80834132493294
30
0
11
143.00009422417031
21
37.32266587079323
31
0
0
LINE
5
376
100
AcDbEntity
8
0
100
AcDbLine
10
143.00009422417031
20
37.32266587079323
30
0
11
140.90937100763665
21
37.32266587079323
31
0
0
LINE
5
377
100
AcDbEntity
8
0
100
AcDbLine
10
140.90937100763665
20
37.32266587079323
30
0
11
140.36025785322533
21
35.80834132493294
31
0
0
LINE
5
378
100
AcDbEntity
8
0
100
AcDbLine
10
140.36025785322533
20
35.80834132493294
30
0
11
139.65766571874963
21
35.80834132493294
31
0
0
LINE
5
379
100
AcDbEntity
8
0
100
AcDbLine
10
141.10036708827363
20
37.861547291882403
30
0
11
142.79545568342553
21
37.861547291882403
31
0
0
LINE
5
380
100
AcDbEntity
8
0
100
AcDbLine
10
142.79545568342553
20
37.861547291882403
30
0
11
142.27362744922982
21
39.246267796166308
31
0
0
SPLINE
5
381
100
AcDbEntity
8
0
100
AcDbSpline
70
0
71
2
72
6
73
3
74
0
42
0.000000001
43
0.0000000001
44
0.0000000001
40
0
40
0
40
0
40
1
40
1
40
1
10
142.27362744922982
20
39.246267796166308
30
0
10
142.03488283272134
20
39.877236307270891
30
0
10
141.91892095322953
20
40.283102512963183
30
0
0
SPLINE
5
382
100
AcDbEntity
8
0
100
AcDbSpline
70
0
71
2
72
6
73
3
74
0
42
0.000000001
43
0.0000000001
44
0.0000000001
40
0
40
0
40
0
40
1
40
1
40
1
10
141.91892095322953
20
40.283102512963183
30
0
10
141.82342298741685
20
39.802202106125719
30
0
10
141.64948039169656
20
39.328123152859575
30
0
0
LINE
5
383
100
AcDbEntity
8
0
100
AcDbLine
10
141.64948039169656
20
39.328123152859575
30
0
11
141.10036708827363
21
37.861547291882403
31
0
0
LINE
5
384
100
AcDbEntity
8
0
100
AcDbLine
10
144.78044920082436
20
35.80834132493294
30
0
11
144.78044920082436
21
39.430442274220354
31
0
0
LINE
5
385
100
AcDbEntity
8
0
100
AcDbLine
10
144.78044920082436
20
39.430442274220354
30
0
11
145.33297293300973
21
39.430442274220354
31
0
0
LINE
5
386
100
AcDbEntity
8
0
100
AcDbLine
10
145.33297293300973
20
39.430442274220354
30
0
11
145.33297293300973
21
38.881329119809038
31
0
0
SPLINE
5
387
100
AcDbEntity
8
0
100
AcDbSpline
70
0
71
2
72
6
73
3
74
0
42
0.000000001
43
0.0000000001
44
0.0000000001
40
0
40
0
40
0
40
1
40
1
40
1
10
145.33297293300973
20
38.881329119809038
30
0
10
145.54443292732583
20
39.266731560833819
30
0
10
145.72349124069558
20
39.389514744885332
30
0
0
SPLINE
5
388
100
AcDbEntity
8
0
100
AcDbSpline
70
0
71
2
72
6
73
3
74
0
42
0.000000001
43
0.0000000001
44
0.0000000001
40
0
40
0
40
0
40
1
40
1
40
1
10
145.72349124069558
20
39.389514744885332
30
0
10
145.90255015011178
20
39.512297630913622
30
0
10
146.11742072220193
20
39.512297630913622
30
0
0
SPLINE
5
389
100
AcDbEntity
8
0
100
AcDbSpline
70
0
71
2
72
6
73
3
74
0
42
0.000000001
43
0.0000000001
44
0.0000000001
40
0
40
0
40
0
40
1
40
1
40
1
10
146.11742072220193
20
39.512297630913622
30
0
10
146.42778926010476
20
39.512297630913622
30
0
10
146.74838953132974
20
39.31448054374016
30
0
0
LINE
5
390
100
AcDbEntity
8
0
100
AcDbLine
10
146.74838953132974
20
39.31448054374016
30
0
11
146.53692953701363
21
38.744903326638109
31
0
0
SPLINE
5
391
100
AcDbEntity
8
0
100
AcDbSpline
70
0
71
2
72
6
73
3
74
0
42
0.000000001
43
0.0000000001
44
0.0000000001
40
0
40
0
40
0
40
1
40
1
40
1
10
146.53692953701363
20
38.744903326638109
30
0
10
146.31182723160134
20
38.87791854203499
30
0
10
146.08672492618905
20
38.87791854203499
30
0
0
SPLINE
5
392
100
AcDbEntity
8
0
100
AcDbSpline
70
0
71
2
72
6
73
3
74
0
42
0.000000001
43
0.0000000001
44
0.0000000001
40
0
40
0
40
0
40
1
40
1
40
1
10
146.08672492618905
20
38.87791854203499
30
0
10
145.88549666519509
20
38.87791854203499
30
0
10
145.72519712562905
20
38.756840646870501
30
0
0
SPLINE
5
393
100
AcDbEntity
8
0
100
AcDbSpline
70
0
71
2
72
6
73
3
74
0
42
0.000000001
43
0.0000000001
44
0.0000000001
40
0
40
0
40
0
40
1
40
1
40
1
10
145.72519712562905
20
38.756840646870501
30
0
10
145.56489639397012
20
38.635762751706011
30
0
10
145.49668364639626
20
38.420892477639086
30
0
0
SPLINE
5
394
100
AcDbEntity
8
0
100
AcDbSpline
70
0
71
2
72
6
73
3
74
0
42
0.000000001
43
0.0000000001
44
0.0000000001
40
0
40
0
40
0
40
1
40
1
40
1
10
145.49668364639626
20
38.420892477639086
30
0
10
145.39436452503548
20
38.093470752842791
30
0
10
145.39436452503548
20
37.704657734043963
30
0
0
LINE
5
395
100
AcDbEntity
8
0
100
AcDbLine
10
145.39436452503548
20
37.704657734043963
30
0
11
145.39436452503548
21
35.80834132493294
31
0
0
LINE
5
396
100
AcDbEntity
8
0
100
AcDbLine
10
145.39436452503548
20
35.80834132493294
30
0
11
144.78044920082436
21
35.80834132493294
31
0
0
LINE
5
397
100
AcDbEntity
8
0
100
AcDbLine
10
149.46325950737344
20
35.80834132493294
30
0
11
149.46325950737344
21
36.26536709130562
31
0
0
SPLINE
5
398
100
AcDbEntity
8
0
100
AcDbSpline
70
0
71
2
72
6
73
3
74
0
42
0.000000001
43
0.0000000001
44
0.0000000001
40
0
40
0
40
0
40
1
40
1
40
1
10
149.46325950737344
20
36.26536709130562
30
0
10
149.11878399963723
20
35.726485670216448
30
0
10
148.4502988349949
20
35.726485670216448
30
0
0
SPLINE
5
399
100
AcDbEntity
8
0
100
AcDbSpline
70
0
71
2
72
6
73
3
74
0
42
0.000000001
43
0.0000000001
44
0.0000000001
40
0
40
0
40
0
40
1
40
1
40
1
10
148.4502988349949
20
35.726485670216448
30
0
10
148.01714711304055
20
35.726485670216448
30
0
10
147.65391402359353
20
35.96523088277138
30
0
0
SPLINE
5
400
100
AcDbEntity
8
0
100
AcDbSpline
70
0
71
2
72
6
73
3
74
0
42
0.000000001
43
0.0000000001
44
0.0000000001
40
0
40
0
40
0
40
1
40
1
40
1
10
147.65391402359353
20
35.96523088277138
30
0
10
147.29068033810006
20
36.203975499279863
30
0
10
147.09115796203957
20
36.632011354573137
30
0
0
SPLINE
5
401
100
AcDbEntity
8
0
100
AcDbSpline
70
0
71
2
72
6
73
3
74
0
42
0.000000001
43
0.0000000001
44
0.0000000001
40
0
40
0
40
0
40
1
40
1
40
1
10
147.09115796203957
20
36.632011354573137
30
0
10
146.89163558597909
20
37.060046613819964
30
0
10
146.89163558597909
20
37.615981519825823
30
0
0
SPLINE
5
402
100
AcDbEntity
8
0
100
AcDbSpline
70
0
71
2
72
6
73
3
74
0
42
0.000000001
43
0.0000000001
44
0.0000000001
40
0
40
0
40
0
40
1
40
1
40
1
10
146.89163558597909
20
37.615981519825823
30
0
10
146.89163558597909
20
38.158273518689043
30
0
10
147.07239978428231
20
38.599951387055285
30
0
0
SPLINE
5
403
100
AcDbEntity
8
0
100
AcDbSpline
70
0
71
2
72
6
73
3
74
0
42
0.000000001
43
0.0000000001
44
0.0000000001
40
0
40
0
40
0
40
1
40
1
40
1
10
147.07239978428231
20
38.599951387055285
30
0
10
147.25316338653909
20
39.04162955344475
30
0
10
147.61469178314553
20
39.27696389020241
30
0
0
SPLINE
5
404
100
AcDbEntity
8
0
100
AcDbSpline
70
0
71
2
72
6
73
3
74
0
42
0.000000001
43
0.0000000001
44
0.0000000001
40
0
40
0
40
0
40
1
40
1
40
1
10
147.61469178314553
20
39.27696389020241
30
0
10
147.97621958370553
20
39.512297928936846
30
0
10
148.42301361675607
20
39.512297928936846
30
0
0
SPLINE
5
405
100
AcDbEntity
8
0
100
AcDbSpline
70
0
71
2
72
6
73
3
74
0
42
0.000000001
43
0.0000000001
44
0.0000000001
40
0
40
0
40
0
40
1
40
1
40
1
10
148.42301361675607
20
39.512297928936846
30
0
10
148.75043504352914
20
39.512297928936846
30
0
10
149.00623314495431
20
39.374167144902117
30
0
0
SPLINE
5
406
100
AcDbEntity
8
0
100
AcDbSpline
70
0
71
2
72
6
73
3
74
0
42
0.000000001
43
0.0000000001
44
0.0000000001
40
0
40
0
40
0
40
1
40
1
40
1
10
149.00623314495431
20
39.374167144902117
30
0
10
149.26203124637948
20
39.236036062844164
30
0
10
149.42233138199197
20
39.014344335205919
30
0
0
LINE
5
407
100
AcDbEntity
8
0
100
AcDbLine
10
149.42233138199197
20
39.014344335205919
30
0
11
149.42233138199197
21
40.80834132493294
31
0
0
LINE
5
408
100
AcDbEntity
8
0
100
AcDbLine
10
149.42233138199197
20
40.80834132493294
30
0
11
150.03283553238259
21
40.80834132493294
31
0
0
LINE
5
409
100
AcDbEntity
8
0
100
AcDbLine
10
150.03283553238259
20
40.80834132493294
30
0
11
150.03283553238259
21
35.80834132493294
31
0
0
LINE
5
410
100
AcDbEntity
8
0
100
AcDbLine
10
150.03283553238259
20
35.80834132493294
30
0
11
149.46325950737344
21
35.80834132493294
31
0
0
SPLINE
5
411
100
AcDbEntity
8
0
100
AcDbSpline
70
0
71
2
72
6
73
3
74
0
42
0.000000001
43
0.0000000001
44
0.0000000001
40
0
40
0
40
0
40
1
40
1
40
1
10
147.5226043951069
20
37.615981519825823
30
0
10
147.5226043951069
20
36.920210540898211
30
0
10
147.81591944809304
20
36.575735629208452
30
0
0
SPLINE
5
412
100
AcDbEntity
8
0
100
AcDbSpline
70
0
71
2
72
6
73
3
74
0
42
0.000000001
43
0.0000000001
44
0.0000000001
40
0
40
0
40
0
40
1
40
1
40
1
10
147.81591944809304
20
36.575735629208452
30
0
10
148.10923450107919
20
36.231260717518694
30
0
10
148.50827984924661
20
36.231260717518694
30
0
0
SPLINE
5
413
100
AcDbEntity
8
0
100
AcDbSpline
70
0
71
2
72
6
73
3
74
0
42
0.000000001
43
0.0000000001
44
0.0000000001
40
0
40
0
40
0
40
1
40
1
40
1
10
148.50827984924661
20
36.231260717518694
30
0
10
148.91073517914162
20
36.231260717518694
30
0
10
149.1921132099186
20
36.560388029225237
30
0
0
SPLINE
5
414
100
AcDbEntity
8
0
100
AcDbSpline
70
0
71
2
72
6
73
3
74
0
42
0.000000001
43
0.0000000001
44
0.0000000001
40
0
40
0
40
0
40
1
40
1
40
1
10
149.1921132099186
20
36.560388029225237
30
0
10
149.47349124069558
20
36.889514744885332
30
0
10
149.47349124069558
20
37.56482166112221
30
0
0
SPLINE
5
415
100
AcDbEntity
8
0
100
AcDbSpline
70
0
71
2
72
6
73
3
74
0
42
0.000000001
43
0.0000000001
44
0.0000000001
40
0
40
0
40
0
40
1
40
1
40
1
10
149.47349124069558
20
37.56482166112221
30
0
10
149.47349124069558
20
38.308341622956164
30
0
10
149.18699734325753
20
38.65622711241997
30
0
0
SPLINE
5
416
100
AcDbEntity
8
0
100
AcDbSpline
70
0
71
2
72
6
73
3
74
0
42
0.000000001
43
0.0000000001
44
0.0000000001
40
0
40
0
40
0
40
1
40
1
40
1
10
149.18699734325753
20
38.65622711241997
30
0
10
148.90050344581948
20
39.004112601883776
30
0
10
148.48099403496133
20
39.004112601883776
30
0
0
SPLINE
5
417
100
AcDbEntity
8
0
100
AcDbSpline
70
0
71
2
72
6
73
3
74
0
42
0.000000001
43
0.0000000001
44
0.0000000001
40
0
40
0
40
0
40
1
40
1
40
1
10
148.48099403496133
20
39.004112601883776
30
0
10
148.07171754951821
20
39.004112601883776
30
0
10
147.79716067428933
20
38.669869721539385
30
0
0
SPLINE
5
418
100
AcDbEntity
8
0
100
AcDbSpline
70
0
71
2
72
6
73
3
74
0
42
0.000000001
43
0.0000000001
44
0.0000000001
40
0
40
0
40
0
40
1
40
1
40
1
10
147.79716067428933
20
38.669869721539385
30
0
10
147.5226043951069
20
38.335626841194994
30
0
10
147.5226043951069
20
37.615981519825823
30
0
0
LINE
5
419
100
AcDbEntity
8
0
100
AcDbLine
10
153.3718543540989
20
35.80834132493294
30
0
11
153.3718543540989
21
36.340401590474016
31
0
0
SPLINE
5
420
100
AcDbEntity
8
0
100
AcDbSpline
70
0
71
2
72
6
73
3
74
0
42
0.000000001
43
0.0000000001
44
0.0000000001
40
0
40
0
40
0
40
1
40
1
40
1
10
153.3718543540989
20
36.340401590474016
30
0
10
152.94893555755959
20
35.726485670216448
30
0
10
152.22246818657266
20
35.726485670216448
30
0
0
SPLINE
5
421
100
AcDbEntity
8
0
100
AcDbSpline
70
0
71
2
72
6
73
3
74
0
42
0.000000001
43
0.0000000001
44
0.0000000001
40
0
40
0
40
0
40
1
40
1
40
1
10
152.22246818657266
20
35.726485670216448
30
0
10
151.90186791534768
20
35.726485670216448
30
0
10
151.62390046234475
20
35.849268854267962
30
0
0
SPLINE
5
422
100
AcDbEntity
8
0
100
AcDbSpline
70
0
71
2
72
6
73
3
74
0
42
0.000000001
43
0.0000000001
44
0.0000000001
40
0
40
0
40
0
40
1
40
1
40
1
10
151.62390046234475
20
35.849268854267962
30
0
10
151.34593420143472
20
35.972052038319475
30
0
10
151.21121339912759
20
36.15793210328377
30
0
0
SPLINE
5
423
100
AcDbEntity
8
0
100
AcDbSpline
70
0
71
2
72
6
73
3
74
0
42
0.000000001
43
0.0000000001
44
0.0000000001
40
0
40
0
40
0
40
1
40
1
40
1
10
151.21121339912759
20
36.15793210328377
30
0
10
151.07649259682046
20
36.343812168248064
30
0
10
151.02192335243569
20
36.613252580769426
30
0
0
SPLINE
5
424
100
AcDbEntity
8
0
100
AcDbSpline
70
0
71
2
72
6
73
3
74
0
42
0.000000001
43
0.0000000001
44
0.0000000001
40
0
40
0
40
0
40
1
40
1
40
1
10
151.02192335243569
20
36.613252580769426
30
0
10
150.98440580482827
20
36.794016779072649
30
0
10
150.98440580482827
20
37.186240375645525
30
0
0
LINE
5
425
100
AcDbEntity
8
0
100
AcDbLine
10
150.98440580482827
20
37.186240375645525
30
0
11
150.98440580482827
21
39.430442274220354
31
0
0
LINE
5
426
100
AcDbEntity
8
0
100
AcDbLine
10
150.98440580482827
20
39.430442274220354
30
0
11
151.59832172508584
21
39.430442274220354
31
0
0
LINE
5
427
100
AcDbEntity
8
0
100
AcDbLine
10
151.59832172508584
20
39.430442274220354
30
0
11
151.59832172508584
21
37.421574712403185
31
0
0
SPLINE
5
428
100
AcDbEntity
8
0
100
AcDbSpline
70
0
71
2
72
6
73
3
74
0
42
0.000000001
43
0.0000000001
44
0.0000000001
40
0
40
0
40
0
40
1
40
1
40
1
10
151.59832172508584
20
37.421574712403185
30
0
10
151.59832172508584
20
36.940674007542498
30
0
10
151.63583808060037
20
36.773552716381914
30
0
0
SPLINE
5
429
100
AcDbEntity
8
0
100
AcDbSpline
70
0
71
2
72
6
73
3
74
0
42
0.000000001
43
0.0000000001
44
0.0000000001
40
0
40
0
40
0
40
1
40
1
40
1
10
151.63583808060037
20
36.773552716381914
30
0
10
151.69381909485207
20
36.531397522099383
30
0
10
151.88140444870339
20
36.393266142018206
30
0
0
SPLINE
5
430
100
AcDbEntity
8
0
100
AcDbSpline
70
0
71
2
72
6
73
3
74
0
42
0.000000001
43
0.0000000001
44
0.0000000001
40
0
40
0
40
0
40
1
40
1
40
1
10
151.88140444870339
20
36.393266142018206
30
0
10
152.06898980255471
20
36.255135357983477
30
0
10
152.34525137062417
20
36.255135357983477
30
0
0
SPLINE
5
431
100
AcDbEntity
8
0
100
AcDbSpline
70
0
71
2
72
6
73
3
74
0
42
0.000000001
43
0.0000000001
44
0.0000000001
40
0
40
0
40
0
40
1
40
1
40
1
10
152.34525137062417
20
36.255135357983477
30
0
10
152.62151293869363
20
36.255135357983477
30
0
10
152.86366872902261
20
36.396676719792254
30
0
0
SPLINE
5
432
100
AcDbEntity
8
0
100
AcDbSpline
70
0
71
2
72
6
73
3
74
0
42
0.000000001
43
0.0000000001
44
0.0000000001
40
0
40
0
40
0
40
1
40
1
40
1
10
152.86366872902261
20
36.396676719792254
30
0
10
153.10582451935159
20
36.538218677647478
30
0
10
153.20643835182534
20
36.782079160817034
30
0
0
SPLINE
5
433
100
AcDbEntity
8
0
100
AcDbSpline
70
0
71
2
72
6
73
3
74
0
42
0.000000001
43
0.0000000001
44
0.0000000001
40
0
40
0
40
0
40
1
40
1
40
1
10
153.20643835182534
20
36.782079160817034
30
0
10
153.3070521842991
20
37.025940240033037
30
0
10
153.3070521842991
20
37.489787459977038
30
0
0
LINE
5
434
100
AcDbEntity
8
0
100
AcDbLine
10
153.3070521842991
20
37.489787459977038
30
0
11
153.3070521842991
21
39.430442274220354
31
0
0
LINE
5
435
100
AcDbEntity
8
0
100
AcDbLine
10
153.3070521842991
20
39.430442274220354
30
0
11
153.92096810455666
21
39.430442274220354
31
0
0
LINE
5
436
100
AcDbEntity
8
0
100
AcDbLine
10
153.92096810455666
20
39.430442274220354
30
0
11
153.92096810455666
21
35.80834132493294
31
0
0
LINE
5
437
100
AcDbEntity
8
0
100
AcDbLine
10
153.92096810455666
20
35.80834132493294
30
0
11
153.3718543540989
21
35.80834132493294
31
0
0
LINE
5
438
100
AcDbEntity
8
0
100
AcDbLine
10
154.88617830391274
20
40.102338612683184
30
0
11
154.88617830391274
21
40.80834132493294
31
0
0
LINE
5
439
100
AcDbEntity
8
0
100
AcDbLine
10
154.88617830391274
20
40.80834132493294
30
0
11
155.50009422417031
21
40.80834132493294
31
0
0
LINE
5
440
100
AcDbEntity
8
0
100
AcDbLine
10
155.50009422417031
20
40.80834132493294
30
0
11
155.50009422417031
21
40.102338612683184
31
0
0
LINE
5
441
100
AcDbEntity
8
0
100
AcDbLine
10
155.50009422417031
20
40.102338612683184
30
0
11
154.88617830391274
21
40.102338612683184
31
0
0
LINE
5
442
100
AcDbEntity
8
0
100
AcDbLine
10
154.88617830391274
20
35.80834132493294
30
0
11
154.88617830391274
21
39.430442274220354
31
0
0
LINE
5
443
100
AcDbEntity
8
0
100
AcDbLine
10
154.88617830391274
20
39.430442274220354
30
0
11
155.50009422417031
21
39.430442274220354
31
0
0
LINE
5
444
100
AcDbEntity
8
0
100
AcDbLine
10
155.50009422417031
20
39.430442274220354
30
0
11
155.50009422417031
21
35.80834132493294
31
0
0
LINE
5
445
100
AcDbEntity
8
0
100
AcDbLine
10
155.50009422417031
20
35.80834132493294
30
0
11
154.88617830391274
21
35.80834132493294
31
0
0
LINE
5
446
100
AcDbEntity
8
0
100
AcDbLine
10
156.43460922355996
20
35.80834132493294
30
0
11
156.43460922355996
21
39.430442274220354
31
0
0
LINE
5
447
100
AcDbEntity
8
0
100
AcDbLine
10
156.43460922355996
20
39.430442274220354
30
0
11
156.98713355179177
21
39.430442274220354
31
0
0
LINE
5
448
100
AcDbEntity
8
0
100
AcDbLine
10
156.98713355179177
20
39.430442274220354
30
0
11
156.98713355179177
21
38.915435493595965
31
0
0
SPLINE
5
449
100
AcDbEntity
8
0
100
AcDbSpline
70
0
71
2
72
6
73
3
74
0
42
0.000000001
43
0.0000000001
44
0.0000000001
40
0
40
0
40
0
40
1
40
1
40
1
10
156.98713355179177
20
38.915435493595965
30
0
10
157.38617830391274
20
39.512297630913622
30
0
10
158.13993029709206
20
39.512297630913622
30
0
0
SPLINE
5
450
100
AcDbEntity
8
0
100
AcDbSpline
70
0
71
2
72
6
73
3
74
0
42
0.000000001
43
0.0000000001
44
0.0000000001
40
0
40
0
40
0
40
1
40
1
40
1
10
158.13993029709206
20
39.512297630913622
30
0
10
158.46735172386514
20
39.512297630913622
30
0
10
158.74190859909402
20
39.394630611546404
30
0
0
SPLINE
5
451
100
AcDbEntity
8
0
100
AcDbSpline
70
0
71
2
72
6
73
3
74
0
42
0.000000001
43
0.0000000001
44
0.0000000001
40
0
40
0
40
0
40
1
40
1
40
1
10
158.74190859909402
20
39.394630611546404
30
0
10
159.01646428223
20
39.276963592179186
30
0
10
159.15288977737771
20
39.08596766055382
30
0
0
SPLINE
5
452
100
AcDbEntity
8
0
100
AcDbSpline
70
0
71
2
72
6
73
3
74
0
42
0.000000001
43
0.0000000001
44
0.0000000001
40
0
40
0
40
0
40
1
40
1
40
1
10
159.15288977737771
20
39.08596766055382
30
0
10
159.28931527252541
20
38.894971728928454
30
0
10
159.34388690109597
20
38.632352173931963
30
0
0
SPLINE
5
453
100
AcDbEntity
8
0
100
AcDbSpline
70
0
71
2
72
6
73
3
74
0
42
0.000000001
43
0.0000000001
44
0.0000000001
40
0
40
0
40
0
40
1
40
1
40
1
10
159.34388690109597
20
38.632352173931963
30
0
10
159.37799267883645
20
38.461820304997332
30
0
10
159.37799267883645
20
38.035490036614306
30
0
0
LINE
5
454
100
AcDbEntity
8
0
100
AcDbLine
10
159.37799267883645
20
38.035490036614306
30
0
11
159.37799267883645
21
35.80834132493294
31
0
0
LINE
5
455
100
AcDbEntity
8
0
100
AcDbLine
10
159.37799267883645
20
35.80834132493294
30
0
11
158.76407675857888
21
35.80834132493294
31
0
0
LINE
5
456
100
AcDbEntity
8
0
100
AcDbLine
10
158.76407675857888
20
35.80834132493294
30
0
11
158.76407675857888
21
38.011615694172747
31
0
0
SPLINE
5
457
100
AcDbEntity
8
0
100
AcDbSpline
70
0
71
2
72
6
73
3
74
0
42
0.000000001
43
0.0000000001
44
0.0000000001
40
0
40
0
40
0
40
1
40
1
40
1
10
158.76407675857888
20
38.011615694172747
30
0
10
158.76407675857888
20
38.38678610385216
30
0
10
158.69245343323098
20
38.572666168816454
30
0
0
SPLINE
5
458
100
AcDbEntity
8
0
100
AcDbSpline
70
0
71
2
72
6
73
3
74
0
42
0.000000001
43
0.0000000001
44
0.0000000001
40
0
40
0
40
0
40
1
40
1
40
1
10
158.69245343323098
20
38.572666168816454
30
0
10
158.62083010788308
20
38.758545935757525
30
0
10
158.43836121673928
20
38.869391799576647
30
0
0
SPLINE
5
459
100
AcDbEntity
8
0
100
AcDbSpline
70
0
71
2
72
6
73
3
74
0
42
0.000000001
43
0.0000000001
44
0.0000000001
40
0
40
0
40
0
40
1
40
1
40
1
10
158.43836121673928
20
38.869391799576647
30
0
10
158.25589113350259
20
38.980237663395769
30
0
10
158.01032595749246
20
38.980237663395769
30
0
0
SPLINE
5
460
100
AcDbEntity
8
0
100
AcDbSpline
70
0
71
2
72
6
73
3
74
0
42
0.000000001
43
0.0000000001
44
0.0000000001
40
0
40
0
40
0
40
1
40
1
40
1
10
158.01032595749246
20
38.980237663395769
30
0
10
157.61810116882668
20
38.980237663395769
30
0
10
157.33331256027566
20
38.731260717518694
30
0
0
SPLINE
5
461
100
AcDbEntity
8
0
100
AcDbSpline
70
0
71
2
72
6
73
3
74
0
42
0.000000001
43
0.0000000001
44
0.0000000001
40
0
40
0
40
0
40
1
40
1
40
1
10
157.33331256027566
20
38.731260717518694
30
0
10
157.04852514381753
20
38.482284069664843
30
0
10
157.04852514381753
20
37.786513388760454
30
0
0
LINE
5
462
100
AcDbEntity
8
0
100
AcDbLine
10
157.04852514381753
20
37.786513388760454
30
0
11
157.04852514381753
21
35.80834132493294
31
0
0
LINE
5
463
100
AcDbEntity
8
0
100
AcDbLine
10
157.04852514381753
20
35.80834132493294
30
0
11
156.43460922355996
21
35.80834132493294
31
0
0
SPLINE
5
464
100
AcDbEntity
8
0
100
AcDbSpline
70
0
71
2
72
6
73
3
74
0
42
0.000000001
43
0.0000000001
44
0.0000000001
40
0
40
0
40
0
40
1
40
1
40
1
10
160.09081893082009
20
37.619391799576647
30
0
10
160.09081893082009
20
38.625531018383867
30
0
10
160.6501632225071
20
39.109842002995379
30
0
0
SPLINE
5
465
100
AcDbEntity
8
0
100
AcDbSpline
70
0
71
2
72
6
73
3
74
0
42
0.000000001
43
0.0000000001
44
0.0000000001
40
0
40
0
40
0
40
1
40
1
40
1
10
160.6501632225071
20
39.109842002995379
30
0
10
161.11742072220193
20
39.512297630913622
30
0
10
161.78931765671121
20
39.512297630913622
30
0
0
SPLINE
5
466
100
AcDbEntity
8
0
100
AcDbSpline
70
0
71
2
72
6
73
3
74
0
42
0.000000001
43
0.0000000001
44
0.0000000001
40
0
40
0
40
0
40
1
40
1
40
1
10
161.78931765671121
20
39.512297630913622
30
0
10
162.53625087852822
20
39.512297630913622
30
0
10
163.01032714958535
20
39.022870779641039
30
0
0
SPLINE
5
467
100
AcDbEntity
8
0
100
AcDbSpline
70
0
71
2
72
6
73
3
74
0
42
0.000000001
43
0.0000000001
44
0.0000000001
40
0
40
0
40
0
40
1
40
1
40
1
10
163.01032714958535
20
39.022870779641039
30
0
10
163.48440818901406
20
38.533443630345232
30
0
10
163.48440818901406
20
37.670551360257036
30
0
0
SPLINE
5
468
100
AcDbEntity
8
0
100
AcDbSpline
70
0
71
2
72
6
73
3
74
0
42
0.000000001
43
0.0000000001
44
0.0000000001
40
0
40
0
40
0
40
1
40
1
40
1
10
163.48440818901406
20
37.670551360257036
30
0
10
163.48440818901406
20
36.971369803555376
30
0
10
163.27465229149209
20
36.570619762547381
30
0
0
SPLINE
5
469
100
AcDbEntity
8
0
100
AcDbSpline
70
0
71
2
72
6
73
3
74
0
42
0.000000001
43
0.0000000001
44
0.0000000001
40
0
40
0
40
0
40
1
40
1
40
1
10
163.27465229149209
20
36.570619762547381
30
0
10
163.06489639397012
20
36.169869125492937
30
0
10
162.66414814110146
20
35.948177397854693
30
0
0
SPLINE
5
470
100
AcDbEntity
8
0
100
AcDbSpline
70
0
71
2
72
6
73
3
74
0
42
0.000000001
43
0.0000000001
44
0.0000000001
40
0
40
0
40
0
40
1
40
1
40
1
10
162.66414814110146
20
35.948177397854693
30
0
10
162.26339631195412
20
35.726485670216448
30
0
10
161.78931765671121
20
35.726485670216448
30
0
0
SPLINE
5
471
100
AcDbEntity
8
0
100
AcDbSpline
70
0
71
2
72
6
73
3
74
0
42
0.000000001
43
0.0000000001
44
0.0000000001
40
0
40
0
40
0
40
1
40
1
40
1
10
161.78931765671121
20
35.726485670216448
30
0
10
161.02874570007668
20
35.726485670216448
30
0
10
160.55978112335549
20
36.214207828648455
30
0
0
SPLINE
5
472
100
AcDbEntity
8
0
100
AcDbSpline
70
0
71
2
72
6
73
3
74
0
42
0.000000001
43
0.0000000001
44
0.0000000001
40
0
40
0
40
0
40
1
40
1
40
1
10
160.55978112335549
20
36.214207828648455
30
0
10
160.09081893082009
20
36.701929391034014
30
0
10
160.09081893082009
20
37.619391799576647
30
0
0
SPLINE
5
473
100
AcDbEntity
8
0
100
AcDbSpline
70
0
71
2
72
6
73
3
74
0
42
0.000000001
43
0.0000000001
44
0.0000000001
40
0
40
0
40
0
40
1
40
1
40
1
10
160.721786547855
20
37.619391799576647
30
0
10
160.721786547855
20
36.923621118672258
30
0
10
161.02533393020974
20
36.577440918095476
30
0
0
SPLINE
5
474
100
AcDbEntity
8
0
100
AcDbSpline
70
0
71
2
72
6
73
3
74
0
42
0.000000001
43
0.0000000001
44
0.0000000001
40
0
40
0
40
0
40
1
40
1
40
1
10
161.02533393020974
20
36.577440918095476
30
0
10
161.32888131256448
20
36.231260717518694
30
0
10
161.78931765671121
20
36.231260717518694
30
0
0
SPLINE
5
475
100
AcDbEntity
8
0
100
AcDbSpline
70
0
71
2
72
6
73
3
74
0
42
0.000000001
43
0.0000000001
44
0.0000000001
40
0
40
0
40
0
40
1
40
1
40
1
10
161.78931765671121
20
36.231260717518694
30
0
10
162.24634461517678
20
36.231260717518694
30
0
10
162.54989318962441
20
36.5791462069825
30
0
0
SPLINE
5
476
100
AcDbEntity
8
0
100
AcDbSpline
70
0
71
2
72
6
73
3
74
0
42
0.000000001
43
0.0000000001
44
0.0000000001
40
0
40
0
40
0
40
1
40
1
40
1
10
162.54989318962441
20
36.5791462069825
30
0
10
162.85343818779336
20
36.927031696446306
30
0
10
162.85343818779336
20
37.639855564244158
30
0
0
SPLINE
5
477
100
AcDbEntity
8
0
100
AcDbSpline
70
0
71
2
72
6
73
3
74
0
42
0.000000001
43
0.0000000001
44
0.0000000001
40
0
40
0
40
0
40
1
40
1
40
1
10
162.85343818779336
20
37.639855564244158
30
0
10
162.85343818779336
20
38.311751902706987
30
0
10
162.54818611259805
20
38.65793210328377
30
0
0
SPLINE
5
478
100
AcDbEntity
8
0
100
AcDbSpline
70
0
71
2
72
6
73
3
74
0
42
0.000000001
43
0.0000000001
44
0.0000000001
40
0
40
0
40
0
40
1
40
1
40
1
10
162.54818611259805
20
38.65793210328377
30
0
10
162.24293284530984
20
39.004112303860552
30
0
10
161.78931765671121
20
39.004112303860552
30
0
0
SPLINE
5
479
100
AcDbEntity
8
0
100
AcDbSpline
70
0
71
2
72
6
73
3
74
0
42
0.000000001
43
0.0000000001
44
0.0000000001
40
0
40
0
40
0
40
1
40
1
40
1
10
161.78931765671121
20
39.004112303860552
30
0
10
161.32888131256448
20
39.004112303860552
30
0
10
161.02533393020974
20
38.659637392170794
30
0
0
SPLINE
5
480
100
AcDbEntity
8
0
100
AcDbSpline
70
0
71
2
72
6
73
3
74
0
42
0.000000001
43
0.0000000001
44
0.0000000001
40
0
40
0
40
0
40
1
40
1
40
1
10
161.02533393020974
20
38.659637392170794
30
0
10
160.721786547855
20
38.315162778504259
30
0
10
160.721786547855
20
37.619391799576647
30
0
0
LINE
5
481
100
AcDbEntity
8
0
100
AcDbLine
10
166.34593181724892
20
35.80834132493294
30
0
11
165.73201828117715
21
35.80834132493294
31
0
0
LINE
5
482
100
AcDbEntity
8
0
100
AcDbLine
10
165.73201828117715
20
35.80834132493294
30
0
11
165.73201828117715
21
39.720346749432451
31
0
0
SPLINE
5
483
100
AcDbEntity
8
0
100
AcDbSpline
70
0
71
2
72
6
73
3
74
0
42
0.000000001
43
0.0000000001
44
0.0000000001
40
0
40
0
40
0
40
1
40
1
40
1
10
165.73201828117715
20
39.720346749432451
30
0
10
165.51032238121377
20
39.508887053139574
30
0
10
165.15050106163369
20
39.297427356846697
30
0
0
SPLINE
5
484
100
AcDbEntity
8
0
100
AcDbSpline
70
0
71
2
72
6
73
3
74
0
42
0.000000001
43
0.0000000001
44
0.0000000001
40
0
40
0
40
0
40
1
40
1
40
1
10
165.15050106163369
20
39.297427356846697
30
0
10
164.79067974205361
20
39.08596766055382
30
0
10
164.50418644066201
20
38.980237663395769
30
0
0
LINE
5
485
100
AcDbEntity
8
0
100
AcDbLine
10
164.50418644066201
20
38.980237663395769
30
0
11
164.50418644066201
21
39.573689222939379
31
0
0
SPLINE
5
486
100
AcDbEntity
8
0
100
AcDbSpline
70
0
71
2
72
6
73
3
74
0
42
0.000000001
43
0.0000000001
44
0.0000000001
40
0
40
0
40
0
40
1
40
1
40
1
10
164.50418644066201
20
39.573689222939379
30
0
10
165.0191944133793
20
39.815844715245134
30
0
10
165.40459327812539
20
40.160319626934893
30
0
0
SPLINE
5
487
100
AcDbEntity
8
0
100
AcDbSpline
70
0
71
2
72
6
73
3
74
0
42
0.000000001
43
0.0000000001
44
0.0000000001
40
0
40
0
40
0
40
1
40
1
40
1
10
165.40459327812539
20
40.160319626934893
30
0
10
165.78999691124307
20
40.504794240601427
30
0
10
165.95029525871621
20
40.828805387623675
30
0
0
LINE
5
488
100
AcDbEntity
8
0
100
AcDbLine
10
165.95029525871621
20
40.828805387623675
30
0
11
166.34593181724892
21
40.828805387623675
31
0
0
LINE
5
489
100
AcDbEntity
8
0
100
AcDbLine
10
166.34593181724892
20
40.828805387623675
30
0
11
166.34593181724892
21
35.80834132493294
31
0
0
LINE
5
490
100
AcDbEntity
8
0
100
AcDbLine
10
18.510111554970688
20
39.63234178189493
30
0
11
18.501736283726196
21
40.338294814706316
31
0
0
LINE
5
491
100
AcDbEntity
8
0
100
AcDbLine
10
18.501736283726196
20
40.338294814706316
30
0
11
19.115608557432285
21
40.345577660112177
31
0
0
LINE
5
492
100
AcDbEntity
8
0
100
AcDbLine
10
19.115608557432285
20
40.345577660112177
30
0
11
19.123983828676781
21
39.63962462730079
31
0
0
LINE
5
493
100
AcDbEntity
8
0
100
AcDbLine
10
19.123983828676781
20
39.63962462730079
30
0
11
18.510111554970688
21
39.63234178189493
31
0
0
LINE
5
494
100
AcDbEntity
8
0
100
AcDbLine
10
18.561051008012488
20
35.338646650736891
30
0
11
18.518082224183669
21
38.960492722900234
31
0
0
LINE
5
495
100
AcDbEntity
8
0
100
AcDbLine
10
18.518082224183669
20
38.960492722900234
30
0
11
19.131954497889758
21
38.967775568306095
31
0
0
LINE
5
496
100
AcDbEntity
8
0
100
AcDbLine
10
19.131954497889758
20
38.967775568306095
30
0
11
19.174923281718577
21
35.345929496142745
31
0
0
LINE
5
497
100
AcDbEntity
8
0
100
AcDbLine
10
19.174923281718577
20
35.345929496142745
30
0
11
18.561051008012488
21
35.338646650736891
31
0
0
LINE
5
498
100
AcDbEntity
8
0
100
AcDbLine
10
20.109373266904278
20
35.357015604887373
30
0
11
20.066404483075459
21
38.978861677050716
31
0
0
LINE
5
499
100
AcDbEntity
8
0
100
AcDbLine
10
20.066404483075463
20
38.978861677050716
30
0
11
20.618889335709479
21
38.985416235617961
31
0
0
LINE
5
500
100
AcDbEntity
8
0
100
AcDbLine
10
20.618889335709479
20
38.985416235617961
30
0
11
20.624998832749139
21
38.470445694581848
31
0
0
SPLINE
5
501
100
AcDbEntity
8
0
100
AcDbSpline
70
0
71
2
72
6
73
3
74
0
42
0.000000001
43
0.0000000001
44
0.0000000001
40
0
40
0
40
0
40
1
40
1
40
1
10
20.624998832749139
20
38.470445694581848
30
0
10
21.01693555858791
20
39.071999685339321
30
0
10
21.770633916340859
20
39.080941396599592
30
0
0
SPLINE
5
502
100
AcDbEntity
8
0
100
AcDbSpline
70
0
71
2
72
6
73
3
74
0
42
0.000000001
43
0.0000000001
44
0.0000000001
40
0
40
0
40
0
40
1
40
1
40
1
10
21.770633916340859
20
39.080941396599592
30
0
10
22.09803260138516
20
39.084825582465925
30
0
10
22.373965736173833
20
38.970423892533702
30
0
0
SPLINE
5
503
100
AcDbEntity
8
0
100
AcDbSpline
70
0
71
2
72
6
73
3
74
0
42
0.000000001
43
0.0000000001
44
0.0000000001
40
0
40
0
40
0
40
1
40
1
40
1
10
22.373965736173833
20
38.970423892533702
30
0
10
22.649899168964755
20
38.856022206136906
30
0
10
22.788580838436356
20
38.666658122487689
30
0
0
SPLINE
5
504
100
AcDbEntity
8
0
100
AcDbSpline
70
0
71
2
72
6
73
3
74
0
42
0.000000001
43
0.0000000001
44
0.0000000001
40
0
40
0
40
0
40
1
40
1
40
1
10
22.788580838436356
20
38.666658122487689
30
0
10
22.927262507907958
20
38.477294038838473
30
0
10
22.984944545715827
20
38.215340329725109
30
0
0
SPLINE
5
505
100
AcDbEntity
8
0
100
AcDbSpline
70
0
71
2
72
6
73
3
74
0
42
0.000000001
43
0.0000000001
44
0.0000000001
40
0
40
0
40
0
40
1
40
1
40
1
10
22.984944545715827
20
38.215340329725109
30
0
10
23.021071529690097
20
38.045225062673161
30
0
10
23.026129062154904
20
37.618924793960005
30
0
0
LINE
5
506
100
AcDbEntity
8
0
100
AcDbLine
10
23.026129062154904
20
37.618924793960005
30
0
11
23.052549604510496
21
35.391932800511078
31
0
0
LINE
5
507
100
AcDbEntity
8
0
100
AcDbLine
10
23.052549604510496
20
35.391932800511078
30
0
11
22.438677479805527
21
35.384649956872934
31
0
0
LINE
5
508
100
AcDbEntity
8
0
100
AcDbLine
10
22.438677479805527
20
35.384649956872934
30
0
11
22.412540157457826
21
37.587769287851074
31
0
0
SPLINE
5
509
100
AcDbEntity
8
0
100
AcDbSpline
70
0
71
2
72
6
73
3
74
0
42
0.000000001
43
0.0000000001
44
0.0000000001
40
0
40
0
40
0
40
1
40
1
40
1
10
22.41254015745783
20
37.587769287851074
30
0
10
22.408089531575726
20
37.962913297836948
30
0
10
22.334265863198137
20
38.147930615845866
30
0
0
SPLINE
5
510
100
AcDbEntity
8
0
100
AcDbSpline
70
0
71
2
72
6
73
3
74
0
42
0.000000001
43
0.0000000001
44
0.0000000001
40
0
40
0
40
0
40
1
40
1
40
1
10
22.334265863198137
20
38.147930615845866
30
0
10
22.260442198355975
20
38.332947635852534
30
0
10
22.076670890665859
20
38.441621077828671
30
0
0
SPLINE
5
511
100
AcDbEntity
8
0
100
AcDbSpline
70
0
71
2
72
6
73
3
74
0
42
0.000000001
43
0.0000000001
44
0.0000000001
40
0
40
0
40
0
40
1
40
1
40
1
10
22.076670890665859
20
38.441621077828671
30
0
10
21.892899582975737
20
38.550294519804815
30
0
10
21.647350494691949
20
38.547381379521212
30
0
0
SPLINE
5
512
100
AcDbEntity
8
0
100
AcDbSpline
70
0
71
2
72
6
73
3
74
0
42
0.000000001
43
0.0000000001
44
0.0000000001
40
0
40
0
40
0
40
1
40
1
40
1
10
21.647350494691949
20
38.547381379521212
30
0
10
21.255154497797733
20
38.542728452623351
30
0
10
20.973339528805095
20
38.290390594999131
30
0
0
SPLINE
5
513
100
AcDbEntity
8
0
100
AcDbSpline
70
0
71
2
72
6
73
3
74
0
42
0.000000001
43
0.0000000001
44
0.0000000001
40
0
40
0
40
0
40
1
40
1
40
1
10
20.973339528805095
20
38.290390594999131
30
0
10
20.691524556277024
20
38.038053035377153
30
0
10
20.699778445497891
20
37.342331313911686
30
0
0
LINE
5
514
100
AcDbEntity
8
0
100
AcDbLine
10
20.699778445497891
20
37.342331313911686
30
0
11
20.723245391609243
21
35.364298448525517
31
0
0
LINE
5
515
100
AcDbEntity
8
0
100
AcDbLine
10
20.723245391609243
20
35.364298448525517
30
0
11
20.109373266904278
21
35.357015604887373
31
0
0
LINE
5
516
100
AcDbEntity
8
0
100
AcDbLine
10
24.082490686582709
20
35.404151794590405
30
0
11
24.023175962296417
21
40.40379995855983
31
0
0
LINE
5
517
100
AcDbEntity
8
0
100
AcDbLine
10
24.023175962296417
20
40.40379995855983
30
0
11
26.239936644399432
21
40.430099118891796
31
0
0
SPLINE
5
518
100
AcDbEntity
8
0
100
AcDbSpline
70
0
71
2
72
6
73
3
74
0
42
0.000000001
43
0.0000000001
44
0.0000000001
40
0
40
0
40
0
40
1
40
1
40
1
10
26.239936644399432
20
40.430099118891789
30
0
10
26.908375365612905
20
40.438029328608707
30
0
10
27.257834553724798
20
40.307445548610694
30
0
0
SPLINE
5
519
100
AcDbEntity
8
0
100
AcDbSpline
70
0
71
2
72
6
73
3
74
0
42
0.000000001
43
0.0000000001
44
0.0000000001
40
0
40
0
40
0
40
1
40
1
40
1
10
27.257834553724798
20
40.307445548610694
30
0
10
27.607293149367624
20
40.176861463539566
30
0
10
27.819374545908595
20
39.838289513197282
30
0
0
SPLINE
5
520
100
AcDbEntity
8
0
100
AcDbSpline
70
0
71
2
72
6
73
3
74
0
42
0.000000001
43
0.0000000001
44
0.0000000001
40
0
40
0
40
0
40
1
40
1
40
1
10
27.819374545908595
20
39.838289513197282
30
0
10
28.031454750440545
20
39.499717548713264
30
0
10
28.036350441385665
20
39.087058929127238
30
0
0
SPLINE
5
521
100
AcDbEntity
8
0
100
AcDbSpline
70
0
71
2
72
6
73
3
74
0
42
0.000000001
43
0.0000000001
44
0.0000000001
40
0
40
0
40
0
40
1
40
1
40
1
10
28.036350441385665
20
39.087058929127238
30
0
10
28.042662239441082
20
38.555036401182782
30
0
10
27.702540218877836
20
38.186036910587617
30
0
0
SPLINE
5
522
100
AcDbEntity
8
0
100
AcDbSpline
70
0
71
2
72
6
73
3
74
0
42
0.000000001
43
0.0000000001
44
0.0000000001
40
0
40
0
40
0
40
1
40
1
40
1
10
27.702540218877836
20
38.186036910587617
30
0
10
27.362419390323605
20
37.817037434134193
30
0
10
26.643998352985825
20
37.709598741236576
30
0
0
SPLINE
5
523
100
AcDbEntity
8
0
100
AcDbSpline
70
0
71
2
72
6
73
3
74
0
42
0.000000001
43
0.0000000001
44
0.0000000001
40
0
40
0
40
0
40
1
40
1
40
1
10
26.643998352985825
20
37.709598741236576
30
0
10
26.908096159813574
20
37.586529297077391
30
0
10
27.045968625222141
20
37.465373161061564
30
0
0
SPLINE
5
524
100
AcDbEntity
8
0
100
AcDbSpline
70
0
71
2
72
6
73
3
74
0
42
0.000000001
43
0.0000000001
44
0.0000000001
40
0
40
0
40
0
40
1
40
1
40
1
10
27.045968625222141
20
37.465373161061564
30
0
10
27.339009193930778
20
37.202801173964637
30
0
10
27.602933482764868
20
36.806859181773603
30
0
0
LINE
5
525
100
AcDbEntity
8
0
100
AcDbLine
10
27.602933482764868
20
36.806859181773603
30
0
11
28.488728752534485
21
35.456426432214947
31
0
0
LINE
5
526
100
AcDbEntity
8
0
100
AcDbLine
10
28.488728752534481
20
35.456426432214947
30
0
11
27.656590837799982
21
35.44655413133259
31
0
0
LINE
5
527
100
AcDbEntity
8
0
100
AcDbLine
10
27.656590837799982
20
35.446554131332583
30
0
11
26.982633008515073
21
36.478877539099045
31
0
0
SPLINE
5
528
100
AcDbEntity
8
0
100
AcDbSpline
70
0
71
2
72
6
73
3
74
0
42
0.000000001
43
0.0000000001
44
0.0000000001
40
0
40
0
40
0
40
1
40
1
40
1
10
26.982633008515066
20
36.478877539099045
30
0
10
26.68740818413367
20
36.925611051477418
30
0
10
26.497003812383571
20
37.162113851487746
30
0
0
SPLINE
5
529
100
AcDbEntity
8
0
100
AcDbSpline
70
0
71
2
72
6
73
3
74
0
42
0.000000001
43
0.0000000001
44
0.0000000001
40
0
40
0
40
0
40
1
40
1
40
1
10
26.497003812383571
20
37.162113851487746
30
0
10
26.30659944063347
20
37.398616651498074
30
0
10
26.157114476030017
20
37.492347881023427
30
0
0
SPLINE
5
530
100
AcDbEntity
8
0
100
AcDbSpline
70
0
71
2
72
6
73
3
74
0
42
0.000000001
43
0.0000000001
44
0.0000000001
40
0
40
0
40
0
40
1
40
1
40
1
10
26.157114476030017
20
37.492347881023427
30
0
10
26.007628915422064
20
37.586079103477914
30
0
10
25.853715673717119
20
37.621772702398573
30
0
0
SPLINE
5
531
100
AcDbEntity
8
0
100
AcDbSpline
70
0
71
2
72
6
73
3
74
0
42
0.000000001
43
0.0000000001
44
0.0000000001
40
0
40
0
40
0
40
1
40
1
40
1
10
25.853715673717119
20
37.621772702398573
30
0
10
25.740889518915495
20
37.64431018028661
30
0
10
25.485109417288051
20
37.641275661514811
30
0
0
LINE
5
532
100
AcDbEntity
8
0
100
AcDbLine
10
25.485109417288051
20
37.641275661514811
30
0
11
24.717769112405716
21
37.632172105199416
31
0
0
LINE
5
533
100
AcDbEntity
8
0
100
AcDbLine
10
24.717769112405719
20
37.632172105199416
30
0
11
24.744108732233748
21
35.41200108531519
31
0
0
LINE
5
534
100
AcDbEntity
8
0
100
AcDbLine
10
24.744108732233748
20
35.41200108531519
30
0
11
24.082490686582712
21
35.404151794590405
31
0
0
LINE
5
535
100
AcDbEntity
8
0
100
AcDbLine
10
24.71097178979122
20
38.205119580525256
30
0
11
26.133108868757645
21
38.221991501502437
31
0
0
SPLINE
5
536
100
AcDbEntity
8
0
100
AcDbSpline
70
0
71
2
72
6
73
3
74
0
42
0.000000001
43
0.0000000001
44
0.0000000001
40
0
40
0
40
0
40
1
40
1
40
1
10
26.133108868757652
20
38.221991501502437
30
0
10
26.58669213772281
20
38.227372713471198
30
0
10
26.841359581995867
20
38.32419330924003
30
0
0
SPLINE
5
537
100
AcDbEntity
8
0
100
AcDbSpline
70
0
71
2
72
6
73
3
74
0
42
0.000000001
43
0.0000000001
44
0.0000000001
40
0
40
0
40
0
40
1
40
1
40
1
10
26.841359581995867
20
38.32419330924003
30
0
10
27.096027026268928
20
38.421013905008856
30
0
10
27.226584738281918
20
38.628921163431869
30
0
0
SPLINE
5
538
100
AcDbEntity
8
0
100
AcDbSpline
70
0
71
2
72
6
73
3
74
0
42
0.000000001
43
0.0000000001
44
0.0000000001
40
0
40
0
40
0
40
1
40
1
40
1
10
27.226584738281918
20
38.628921163431869
30
0
10
27.357142450294916
20
38.836828421854875
30
0
10
27.354269773042809
20
39.078966874355196
30
0
0
SPLINE
5
539
100
AcDbEntity
8
0
100
AcDbSpline
70
0
71
2
72
6
73
3
74
0
42
0.000000001
43
0.0000000001
44
0.0000000001
40
0
40
0
40
0
40
1
40
1
40
1
10
27.354269773042809
20
39.078966874355196
30
0
10
27.350061907672529
20
39.433648559651495
30
0
10
27.089866397426569
20
39.659090621575722
30
0
0
SPLINE
5
540
100
AcDbEntity
8
0
100
AcDbSpline
70
0
71
2
72
6
73
3
74
0
42
0.000000001
43
0.0000000001
44
0.0000000001
40
0
40
0
40
0
40
1
40
1
40
1
10
27.089866397426569
20
39.659090621575722
30
0
10
26.829669691636163
20
39.884532967360464
30
0
10
26.273774501220927
20
39.877937949297163
30
0
0
LINE
5
541
100
AcDbEntity
8
0
100
AcDbLine
10
26.273774501220927
20
39.877937949297163
30
0
11
24.691348566514691
21
39.859164396650598
31
0
0
LINE
5
542
100
AcDbEntity
8
0
100
AcDbLine
10
24.691348566514698
20
39.859164396650598
30
0
11
24.71097178979122
21
38.205119580525256
31
0
0
SPLINE
5
543
100
AcDbEntity
8
0
100
AcDbSpline
70
0
71
2
72
6
73
3
74
0
42
0.000000001
43
0.0000000001
44
0.0000000001
40
0
40
0
40
0
40
1
40
1
40
1
10
28.787823264108692
20
37.271152745777115
30
0
10
28.77588749003726
20
38.277221165378549
30
0
10
29.329448259734008
20
38.768133555009413
30
0
0
SPLINE
5
544
100
AcDbEntity
8
0
100
AcDbSpline
70
0
71
2
72
6
73
3
74
0
42
0.000000001
43
0.0000000001
44
0.0000000001
40
0
40
0
40
0
40
1
40
1
40
1
10
29.329448259734008
20
38.768133555009413
30
0
10
29.791898570902553
20
39.176103913202553
30
0
10
30.463748225901753
20
39.1840745894864
30
0
0
SPLINE
5
545
100
AcDbEntity
8
0
100
AcDbSpline
70
0
71
2
72
6
73
3
74
0
42
0.000000001
43
0.0000000001
44
0.0000000001
40
0
40
0
40
0
40
1
40
1
40
1
10
30.463748225901753
20
39.1840745894864
30
0
10
31.210625312087757
20
39.192935374683671
30
0
10
31.690476651488542
20
38.709166931956361
30
0
0
SPLINE
5
546
100
AcDbEntity
8
0
100
AcDbSpline
70
0
71
2
72
6
73
3
74
0
42
0.000000001
43
0.0000000001
44
0.0000000001
40
0
40
0
40
0
40
1
40
1
40
1
10
31.690476651488542
20
38.709166931956361
30
0
10
32.170329186433769
20
38.225398205368528
30
0
10
32.180565629851579
20
37.36256665459856
30
0
0
SPLINE
5
547
100
AcDbEntity
8
0
100
AcDbSpline
70
0
71
2
72
6
73
3
74
0
42
0.000000001
43
0.0000000001
44
0.0000000001
40
0
40
0
40
0
40
1
40
1
40
1
10
32.180565629851579
20
37.36256665459856
30
0
10
32.188859982103942
20
36.66343429734961
30
0
10
31.983874112165473
20
36.260224147498299
30
0
0
SPLINE
5
548
100
AcDbEntity
8
0
100
AcDbSpline
70
0
71
2
72
6
73
3
74
0
42
0.000000001
43
0.0000000001
44
0.0000000001
40
0
40
0
40
0
40
1
40
1
40
1
10
31.983874112165473
20
36.260224147498299
30
0
10
31.778889441306887
20
35.857013415784209
30
0
10
31.380796920695406
20
35.630583205264571
30
0
0
SPLINE
5
549
100
AcDbEntity
8
0
100
AcDbSpline
70
0
71
2
72
6
73
3
74
0
42
0.000000001
43
0.0000000001
44
0.0000000001
40
0
40
0
40
0
40
1
40
1
40
1
10
31.380796920695406
20
35.630583205264571
30
0
10
30.982704400083925
20
35.404152994744926
30
0
10
30.508659104431452
20
35.398529025799775
30
0
0
SPLINE
5
550
100
AcDbEntity
8
0
100
AcDbSpline
70
0
71
2
72
6
73
3
74
0
42
0.000000001
43
0.0000000001
44
0.0000000001
40
0
40
0
40
0
40
1
40
1
40
1
10
30.508659104431452
20
35.398529025799775
30
0
10
29.748139475111557
20
35.389506388476512
30
0
10
29.273423269055264
20
35.871630940490952
30
0
0
SPLINE
5
551
100
AcDbEntity
8
0
100
AcDbSpline
70
0
71
2
72
6
73
3
74
0
42
0.000000001
43
0.0000000001
44
0.0000000001
40
0
40
0
40
0
40
1
40
1
40
1
10
29.273423269055264
20
35.871630940490952
30
0
10
28.798707070069838
20
36.353754896500881
30
0
10
28.787823264108692
20
37.271152745777115
30
0
0
SPLINE
5
552
100
AcDbEntity
8
0
100
AcDbSpline
70
0
71
2
72
6
73
3
74
0
42
0.000000001
43
0.0000000001
44
0.0000000001
40
0
40
0
40
0
40
1
40
1
40
1
10
29.418747673724255
20
37.278637893966447
30
0
10
29.427001562945119
20
36.582916172500973
30
0
10
29.734634302148756
20
36.240361297516152
30
0
0
SPLINE
5
553
100
AcDbEntity
8
0
100
AcDbSpline
70
0
71
2
72
6
73
3
74
0
42
0.000000001
43
0.0000000001
44
0.0000000001
40
0
40
0
40
0
40
1
40
1
40
1
10
29.734634302148756
20
36.240361297516152
30
0
10
30.042265849343373
20
35.897806408389606
30
0
10
30.502670985879984
20
35.903268553492225
30
0
0
SPLINE
5
554
100
AcDbEntity
8
0
100
AcDbSpline
70
0
71
2
72
6
73
3
74
0
42
0.000000001
43
0.0000000001
44
0.0000000001
40
0
40
0
40
0
40
1
40
1
40
1
10
30.502670985879984
20
35.903268553492225
30
0
10
30.959664592626368
20
35.908690224957056
30
0
10
31.259062476812719
20
36.260152186407623
30
0
0
SPLINE
5
555
100
AcDbEntity
8
0
100
AcDbSpline
70
0
71
2
72
6
73
3
74
0
42
0.000000001
43
0.0000000001
44
0.0000000001
40
0
40
0
40
0
40
1
40
1
40
1
10
31.259062476812719
20
36.260152186407623
30
0
10
31.558461553008087
20
36.611614161999931
30
0
10
31.550005362771465
20
37.324387870373755
30
0
0
SPLINE
5
556
100
AcDbEntity
8
0
100
AcDbSpline
70
0
71
2
72
6
73
3
74
0
42
0.000000001
43
0.0000000001
44
0.0000000001
40
0
40
0
40
0
40
1
40
1
40
1
10
31.550005362771465
20
37.324387870373755
30
0
10
31.542034693558485
20
37.99623692936845
30
0
10
31.232697381468746
20
38.338771581676092
30
0
0
SPLINE
5
557
100
AcDbEntity
8
0
100
AcDbSpline
70
0
71
2
72
6
73
3
74
0
42
0.000000001
43
0.0000000001
44
0.0000000001
40
0
40
0
40
0
40
1
40
1
40
1
10
31.232697381468746
20
38.338771581676092
30
0
10
30.923360069379008
20
38.681306233983747
30
0
10
30.46977680041385
20
38.67592502201498
30
0
0
SPLINE
5
558
100
AcDbEntity
8
0
100
AcDbSpline
70
0
71
2
72
6
73
3
74
0
42
0.000000001
43
0.0000000001
44
0.0000000001
40
0
40
0
40
0
40
1
40
1
40
1
10
30.46977680041385
20
38.67592502201498
30
0
10
30.009371663877246
20
38.670462876912367
30
0
10
29.709933320194821
20
38.322411253243011
30
0
0
SPLINE
5
559
100
AcDbEntity
8
0
100
AcDbSpline
70
0
71
2
72
6
73
3
74
0
42
0.000000001
43
0.0000000001
44
0.0000000001
40
0
40
0
40
0
40
1
40
1
40
1
10
29.709933320194821
20
38.322411253243011
30
0
10
29.410493780967958
20
37.974359913434178
30
0
10
29.418747673724255
20
37.278637893966447
30
0
0
LINE
5
560
100
AcDbEntity
8
0
100
AcDbLine
10
34.256023797877496
20
36.074000146661561
30
0
11
34.35112814428625
21
35.532798282552349
31
0
0
SPLINE
5
561
100
AcDbEntity
8
0
100
AcDbSpline
70
0
71
2
72
6
73
3
74
0
42
0.000000001
43
0.0000000001
44
0.0000000001
40
0
40
0
40
0
40
1
40
1
40
1
10
34.35112814428625
20
35.532798282552349
30
0
10
34.092585063885494
20
35.475157303780485
30
0
10
33.88796002897633
20
35.472729677449657
30
0
0
SPLINE
5
562
100
AcDbEntity
8
0
100
AcDbSpline
70
0
71
2
72
6
73
3
74
0
42
0.000000001
43
0.0000000001
44
0.0000000001
40
0
40
0
40
0
40
1
40
1
40
1
10
33.88796002897633
20
35.472729677449657
30
0
10
33.553740966371848
20
35.468764576126631
30
0
10
33.368324884568395
20
35.572301980145227
30
0
0
SPLINE
5
563
100
AcDbEntity
8
0
100
AcDbSpline
70
0
71
2
72
6
73
3
74
0
42
0.000000001
43
0.0000000001
44
0.0000000001
40
0
40
0
40
0
40
1
40
1
40
1
10
33.368324884568395
20
35.572301980145227
30
0
10
33.182908802764942
20
35.675839384163822
30
0
10
33.105836939663511
20
35.847174299082731
30
0
0
SPLINE
5
564
100
AcDbEntity
8
0
100
AcDbSpline
70
0
71
2
72
6
73
3
74
0
42
0.000000001
43
0.0000000001
44
0.0000000001
40
0
40
0
40
0
40
1
40
1
40
1
10
33.105836939663511
20
35.847174299082731
30
0
10
33.028765069491214
20
36.018509810006151
30
0
10
33.022210510923969
20
36.57099466264016
30
0
0
LINE
5
565
100
AcDbEntity
8
0
100
AcDbLine
10
33.022210510923969
20
36.57099466264016
30
0
11
32.997489299222011
21
38.654749787257629
31
0
0
LINE
5
566
100
AcDbEntity
8
0
100
AcDbLine
10
32.997489299222011
20
38.654749787257629
30
0
11
32.547316368038068
21
38.649409034784931
31
0
0
LINE
5
567
100
AcDbEntity
8
0
100
AcDbLine
10
32.547316368038068
20
38.649409034784931
30
0
11
32.54165193252598
21
39.126865264223127
31
0
0
LINE
5
568
100
AcDbEntity
8
0
100
AcDbLine
10
32.54165193252598
20
39.126865264223127
30
0
11
32.991824863709923
21
39.132206016695818
31
0
0
LINE
5
569
100
AcDbEntity
8
0
100
AcDbLine
10
32.991824863709923
20
39.132206016695818
30
0
11
32.981183818260597
21
40.029141541282485
31
0
0
LINE
5
570
100
AcDbEntity
8
0
100
AcDbLine
10
32.981183818260604
20
40.029141541282485
30
0
11
33.587276494298884
21
40.404707266918855
31
0
0
LINE
5
571
100
AcDbEntity
8
0
100
AcDbLine
10
33.587276494298877
20
40.404707266918862
30
0
11
33.602287246638177
21
39.139448407908766
31
0
0
LINE
5
572
100
AcDbEntity
8
0
100
AcDbLine
10
33.602287246638184
20
39.139448407908766
30
0
11
34.21956911311986
21
39.146771703972107
31
0
0
LINE
5
573
100
AcDbEntity
8
0
100
AcDbLine
10
34.21956911311986
20
39.146771703972107
30
0
11
34.225233548631941
21
38.66931547453391
31
0
0
LINE
5
574
100
AcDbEntity
8
0
100
AcDbLine
10
34.225233548631941
20
38.66931547453391
30
0
11
33.607951682150265
21
38.66199217847057
31
0
0
LINE
5
575
100
AcDbEntity
8
0
100
AcDbLine
10
33.607951682150258
20
38.66199217847057
30
0
11
33.63307749588374
21
36.54413308003641
31
0
0
SPLINE
5
576
100
AcDbEntity
8
0
100
AcDbSpline
70
0
71
2
72
6
73
3
74
0
42
0.000000001
43
0.0000000001
44
0.0000000001
40
0
40
0
40
0
40
1
40
1
40
1
10
33.63307749588374
20
36.54413308003641
30
0
10
33.636192933647663
20
36.281532302846536
30
0
10
33.669481868699776
20
36.206887455929689
30
0
0
SPLINE
5
577
100
AcDbEntity
8
0
100
AcDbSpline
70
0
71
2
72
6
73
3
74
0
42
0.000000001
43
0.0000000001
44
0.0000000001
40
0
40
0
40
0
40
1
40
1
40
1
10
33.669481868699776
20
36.206887455929689
30
0
10
33.702770796681023
20
36.132243205017353
30
0
10
33.776619635501433
20
36.088778104093265
30
0
0
SPLINE
5
578
100
AcDbEntity
8
0
100
AcDbSpline
70
0
71
2
72
6
73
3
74
0
42
0.000000001
43
0.0000000001
44
0.0000000001
40
0
40
0
40
0
40
1
40
1
40
1
10
33.776619635501433
20
36.088778104093265
30
0
10
33.850469673401733
20
36.045312421306406
30
0
10
33.986885568668498
20
36.046930829432469
30
0
0
SPLINE
5
579
100
AcDbEntity
8
0
100
AcDbSpline
70
0
71
2
72
6
73
3
74
0
42
0.000000001
43
0.0000000001
44
0.0000000001
40
0
40
0
40
0
40
1
40
1
40
1
10
33.986885568668498
20
36.046930829432469
30
0
10
34.089198086123076
20
36.048144642597876
30
0
10
34.256023797877496
20
36.074000146661561
30
0
0
ENDSEC
0
SECTION
2
OBJECTS
0
DICTIONARY
5
C
100
AcDbDictionary
3
ACAD_GROUP
350
D
3
ACAD_MLINESTYLE
350
17
0
DICTIONARY
5
D
100
AcDbDictionary
0
DICTIONARY
5
1A
330
C
100
AcDbDictionary
0
DICTIONARY
5
17
100
AcDbDictionary
0
ENDSEC
0
EOF
